<?xml version="1.0" encoding="utf-8"?>
<svg version="1.1" x="0px" y="0px" enable-background="new 0 0 1000 1000" viewBox="0 0 1300 1300" xmlns="http://www.w3.org/2000/svg">
  <g transform="matrix(0, 1, -1, 0, 1300, -0.000031)">
    <path d="M 323.4 1324.956 C 251.3 1324.956 192.8 1266.456 192.8 1194.356 L 192.8 476.156 C 192.8 404.056 251.3 345.556 323.4 345.556 L 976.6 345.556 C 1048.7 345.556 1107.2 404.056 1107.2 476.156 L 1107.2 606.756 L 1041.9 606.756 L 1041.9 476.156 C 1041.9 440.056 1012.7 410.856 976.6 410.856 L 323.4 410.856 C 287.3 410.856 258.1 440.056 258.1 476.156 L 258.1 1194.356 C 258.1 1230.456 287.3 1259.656 323.4 1259.656 L 976.6 1259.656 C 1012.7 1259.656 1041.9 1230.456 1041.9 1194.356 L 1041.9 1063.756 L 1107.2 1063.756 L 1107.2 1194.356 C 1107.2 1266.456 1048.7 1324.956 976.6 1324.956 L 323.4 1324.956 L 323.4 1324.956 Z" transform="matrix(0, -1, 1, 0, -185.256027, 1485.255997)"/>
    <path d="M 767.107 203.438 C 754.311 190.616 754.311 169.982 767.107 157.16 C 780.005 144.339 800.862 144.339 813.659 157.16 L 1040.675 382.74 C 1047.526 389.551 1050.448 398.566 1049.945 407.481 C 1050.348 416.396 1047.426 425.412 1040.675 432.223 L 813.659 658.003 C 800.762 670.724 779.904 670.724 767.107 658.003 C 754.311 645.181 754.311 624.547 767.107 611.725 L 939.611 440.236 L 282.949 440.236 C 264.812 440.236 250 425.612 250 407.582 C 250 389.551 264.711 374.927 282.949 374.927 L 939.611 374.927 L 767.107 203.438 L 767.107 203.438 Z" transform="matrix(0, -1, 1, 0, 242.456055, 1057.544067)"/>
    <path d="M 446.2 832.856" transform="matrix(0, -1, 1, 0, -386.656006, 1279.05603)"/>
  </g>
</svg>