<?xml version="1.0" encoding="UTF-8" standalone="no"?>
<!-- Generator: Adobe Illustrator 21.0.2, SVG Export Plug-In . SVG Version: 6.00 Build 0)  -->

<svg
   xmlns:dc="http://purl.org/dc/elements/1.1/"
   xmlns:cc="http://creativecommons.org/ns#"
   xmlns:rdf="http://www.w3.org/1999/02/22-rdf-syntax-ns#"
   xmlns:svg="http://www.w3.org/2000/svg"
   xmlns="http://www.w3.org/2000/svg"
   xmlns:sodipodi="http://sodipodi.sourceforge.net/DTD/sodipodi-0.dtd"
   xmlns:inkscape="http://www.inkscape.org/namespaces/inkscape"
   version="1.1"
   id="Layer_1"
   x="0px"
   y="0px"
   viewBox="0 0 100 100"
   style="enable-background:new 0 0 100 100;"
   xml:space="preserve"
   sodipodi:docname="connection_layer.svg"
   inkscape:version="0.92.4 (5da689c313, 2019-01-14)"><metadata
   id="metadata15"><rdf:RDF><cc:Work
       rdf:about=""><dc:format>image/svg+xml</dc:format><dc:type
         rdf:resource="http://purl.org/dc/dcmitype/StillImage" /></cc:Work></rdf:RDF></metadata><defs
   id="defs13" /><sodipodi:namedview
   pagecolor="#ffffff"
   bordercolor="#666666"
   borderopacity="1"
   objecttolerance="10"
   gridtolerance="10"
   guidetolerance="10"
   inkscape:pageopacity="0"
   inkscape:pageshadow="2"
   inkscape:window-width="1194"
   inkscape:window-height="841"
   id="namedview11"
   showgrid="false"
   inkscape:zoom="4.7"
   inkscape:cx="50"
   inkscape:cy="58.077894"
   inkscape:window-x="469"
   inkscape:window-y="65"
   inkscape:window-maximized="0"
   inkscape:current-layer="Layer_1"
   inkscape:object-paths="false" />
<g
   id="g8">
	<path
   d="M9.1,36.6l36,20.3c1.5,1,3.2,1.5,4.9,1.5s3.4-0.5,4.9-1.5l36-20.3c1.9-1.1,3.1-3,3.1-5.2c0-2.2-1.2-4.1-3.1-5.2l-36-19.9   c-2.9-2-6.8-2-9.8,0l-36,19.9c-2,1.1-3.1,3-3.1,5.2C6,33.6,7.1,35.5,9.1,36.6z M11.1,29.8l36-19.9c0.1,0,0.1-0.1,0.2-0.1   c0,0,0,0,0,0c0,0,0,0,0,0c1.6-1.1,3.8-1.1,5.4,0c0,0,0,0,0,0c0,0,0,0,0,0c0,0,0,0,0,0c0.1,0,0.1,0.1,0.2,0.1l36,19.9   c0.7,0.4,1.1,1,1.1,1.7c0,0.7-0.4,1.3-1.1,1.7L52.9,53.5c-0.1,0-0.1,0.1-0.2,0.1c-1.6,1.1-3.8,1.1-5.4,0c-0.1,0-0.1-0.1-0.2-0.1   L11.1,33.1c-0.7-0.4-1.1-1-1.1-1.7C10,30.8,10.4,30.1,11.1,29.8z"
   id="path2" />
	<path
   d="M90.9,44.8c-1-0.5-2.2-0.2-2.7,0.8c-0.5,1-0.2,2.2,0.8,2.7c0.7,0.4,1.1,1,1.1,1.7c0,0.7-0.4,1.3-1.1,1.7L52.9,72.1   c-0.1,0-0.1,0.1-0.2,0.1c-1.6,1.1-3.8,1.1-5.4,0c-0.1,0-0.1-0.1-0.2-0.1L11.1,51.7c-0.7-0.4-1.1-1-1.1-1.7c0-0.7,0.4-1.3,1.1-1.7   c1-0.5,1.3-1.8,0.8-2.7c-0.5-1-1.8-1.3-2.7-0.8c-2,1.1-3.1,3-3.1,5.2c0,2.2,1.1,4.1,3.1,5.2l36,20.3c1.5,1,3.2,1.5,4.9,1.5   c1.7,0,3.4-0.5,4.9-1.5l36-20.3c1.9-1.1,3.1-3,3.1-5.2C94,47.9,92.8,45.9,90.9,44.8z"
   id="path4" />
	<path
   d="M90.9,62.8c-1-0.5-2.2-0.2-2.7,0.8c-0.5,1-0.2,2.2,0.8,2.7c0.7,0.4,1.1,1,1.1,1.7c0,0.7-0.4,1.3-1.1,1.7L52.9,90.1   c-0.1,0-0.1,0.1-0.2,0.1c-1.6,1.1-3.8,1.1-5.4,0c-0.1,0-0.1-0.1-0.2-0.1L11.1,69.7c-0.7-0.4-1.1-1-1.1-1.7c0-0.7,0.4-1.3,1.1-1.7   c1-0.5,1.3-1.8,0.8-2.7s-1.8-1.3-2.7-0.8c-2,1.1-3.1,3-3.1,5.2c0,2.2,1.1,4.1,3.1,5.2l36,20.3c1.5,1,3.2,1.5,4.9,1.5   c1.7,0,3.4-0.5,4.9-1.5l36-20.3c1.9-1.1,3.1-3,3.1-5.2C94,65.9,92.8,63.9,90.9,62.8z"
   id="path6" />
</g>
<path
   style="stroke-width:0.42372882;fill:#000000;fill-opacity:1"
   d="M 48.887719,54.036195 C 46.748686,53.40664 10.572819,32.537475 10.33518,31.795972 10.196146,31.362146 10.340336,30.76452 10.655602,30.467914 10.970868,30.171308 19.618644,25.292788 29.872881,19.626758 44.245955,11.684844 48.856687,9.3249501 50,9.3251711 c 1.144146,2.211e-4 5.791983,2.3854249 20.338983,10.4376769 10.370763,5.740565 19.045636,10.735558 19.277496,11.099983 0.279593,0.439458 0.279593,0.878763 0,1.304505 -0.518293,0.789202 -37.370297,21.598939 -38.800971,21.910287 -0.565055,0.12297 -1.43256,0.104326 -1.927789,-0.04144 z"
   id="path17"
   inkscape:connector-curvature="0" /><path
   style="fill:#000000;fill-opacity:1;stroke-width:0.42372882"
   d="M 38.110894,47.905493 C 21.475728,38.527239 10.8179,32.120863 10.677335,31.415295 c -0.07108,-0.356774 0.492848,-1.020724 1.271187,-1.49666 3.675095,-2.247238 26.662817,-14.878068 31.998937,-17.582132 l 6.023731,-3.0525086 4.569488,2.2673206 c 5.22014,2.590163 12.922419,6.802038 25.861864,14.14217 6.082297,3.450293 9.004238,5.337147 9.004238,5.814525 0,0.47658 -3.139064,2.512498 -9.639831,6.252152 -20.343843,11.703071 -28.729612,16.222889 -30.098867,16.222889 -0.427242,0 -5.627976,-2.734901 -11.557188,-6.077558 z"
   id="path19"
   inkscape:connector-curvature="0" /><path
   style="fill:#000000;fill-opacity:1;stroke-width:0.42372882"
   d="M 45.762712,52.223593 C 38.857208,48.424763 26.499632,41.349281 18.724219,36.742372 13.031282,33.369325 10.581733,31.694667 10.673371,31.238332 10.823419,30.491131 13.857584,28.694862 29.661017,19.997371 41.817856,13.306799 49.214219,9.4915254 50.02785,9.4915254 c 2.066684,0 39.37893,20.8599886 39.37893,22.0154006 0,0.728184 -4.34406,3.375988 -20.550848,12.526216 -11.342258,6.403752 -18.15623,9.950837 -19.103068,9.944307 -0.446703,-0.0031 -2.242271,-0.792313 -3.990152,-1.753856 z"
   id="path21"
   inkscape:connector-curvature="0" /><path
   style="fill:#000000;fill-opacity:1;stroke-width:0.42372882"
   d="M 42.56423,50.456215 C 24.50376,40.40221 10.59322,32.074462 10.59322,31.316302 c 0,-0.330525 1.287077,-1.351766 2.86017,-2.269424 5.714448,-3.333502 25.987435,-14.491685 31.011463,-17.068603 5.040538,-2.5853869 5.185587,-2.6304186 6.720556,-2.0864503 1.996727,0.7076073 11.510193,5.7913713 24.23832,12.9523633 13.031178,7.331491 13.983051,7.922515 13.983051,8.682156 0,0.791368 0.766313,0.313614 -14.830509,9.246 -15.115741,8.656868 -23.679937,13.210707 -24.844772,13.210707 -0.45752,0 -3.682791,-1.587076 -7.167269,-3.526836 z"
   id="path23"
   inkscape:connector-curvature="0" /><path
   style="fill:#000000;fill-opacity:1;stroke-width:0.42372882"
   d="M 40.466102,49.311652 C 27.297337,41.964744 10.940715,32.223241 10.688692,31.577136 10.35088,30.711099 11.259319,30.143401 26.266361,21.842405 42.519657,12.852055 48.995716,9.4915254 50.067673,9.4915254 c 0.899169,0 8.204844,3.7482316 19.211988,9.8568576 14.266661,7.917557 20.127119,11.459861 20.127119,12.165668 0,0.722296 -5.516361,4.103236 -19.915255,12.205927 -12.968728,7.297895 -17.907452,9.888264 -19.279661,10.112213 -1.035453,0.168987 -2.842742,-0.669318 -9.745762,-4.520539 z"
   id="path25"
   inkscape:connector-curvature="0" /><path
   style="fill:#000000;fill-opacity:1"
   id="path27"
   d="m 47.808275,8.7490924 c 1.633215,0.052904 3.267434,0.03663 4.901218,0.035197 1.506236,-0.069403 2.969238,0.1346396 4.185859,1.0640406 0.759071,0.810249 0.951884,1.619879 0.0075,2.340979 -0.794607,0.503252 -1.133013,0.989483 -0.79569,1.903819 1.082377,1.542501 2.622042,2.683668 4.196907,3.681639 1.123548,0.705295 2.355391,1.031917 3.660316,1.145287 0.709388,-0.05412 2.271869,0.246545 2.877305,-0.05097 0.08892,-0.04369 0.127129,-0.151993 0.190694,-0.22799 -5.216551,3.534167 -3.697315,3.885161 -6.902511,2.49061 -1.211679,-0.581905 -2.464556,-1.053157 -3.607916,-1.765789 -0.920118,-0.552285 -1.831377,-1.133084 -2.638807,-1.842286 -0.107259,-0.11938 -0.214518,-0.238761 -0.321777,-0.358141 0,0 5.347144,-3.244153 5.347144,-3.244153 v 0 c 0.0928,0.09929 0.185599,0.198579 0.278399,0.297869 0.793339,0.669869 1.667623,1.234834 2.552207,1.776411 1.134663,0.675702 2.369381,1.143275 3.574288,1.677933 3.918747,1.607448 1.876419,1.661589 -3.19148,4.904326 -1.077413,0.07651 -2.163285,0.02829 -3.238593,-0.05631 -1.353588,-0.199205 -2.607702,-0.65724 -3.750059,-1.428161 -1.655233,-1.106693 -3.22405,-2.381615 -4.466953,-3.948389 -0.477193,-1.034532 -0.485112,-1.873814 0.398465,-2.692138 0.69855,-0.342256 1.418641,-0.395419 0.564003,-1.263716 -1.149595,-0.790866 -2.543729,-0.818152 -3.898817,-0.787009 -1.66609,-0.0015 -3.332543,-0.01651 -4.998105,0.0352 0,0 5.076448,-3.6882553 5.076448,-3.6882553 z"
   inkscape:connector-curvature="0" /><path
   style="fill:#000000;fill-opacity:1"
   id="path29"
   d="m 58.026761,11.465096 c 1.29441,0.48587 2.615437,0.894515 3.925969,1.333939 1.179148,0.443254 2.239857,1.139923 3.303363,1.804323 1.135093,0.815611 2.135442,1.807404 3.280817,2.605135 1.045496,0.739791 2.12489,1.42259 3.267917,2.001142 1.164587,0.503075 2.303323,1.064247 3.460913,1.583784 1.007958,0.558989 1.991642,1.157902 2.937448,1.81853 0.922035,0.783798 1.909097,1.459988 2.907118,2.140883 1.182602,0.765348 2.377279,1.524265 3.657313,2.116563 1.121808,0.44801 2.18014,0.999837 3.239694,1.576816 0.840538,0.515607 1.650392,1.149114 2.26641,1.924508 0.50344,0.769512 0.650843,1.632299 0.512411,2.528434 -0.263571,1.009313 -0.943513,1.687479 -1.771378,2.262697 -3.002891,2.373928 -5.132185,3.172392 -8.273025,4.065619 -0.874784,0.235936 -1.779842,0.288964 -2.680731,0.318605 -0.973197,-0.07329 -1.911595,0.08759 -2.866724,0.237111 -1.042767,0.230589 -1.965226,0.752555 -2.928724,1.186989 -0.965444,0.391038 -1.928483,0.772605 -2.881661,1.187771 0,0 4.909872,-3.884578 4.909872,-3.884578 v 0 c 0.938164,-0.407302 1.911894,-0.731542 2.83778,-1.169761 0.983105,-0.461586 1.974741,-0.917695 3.062167,-1.069274 0.968012,-0.142849 1.934639,-0.177264 2.912437,-0.191253 0.873461,-0.05631 1.743788,-0.160953 2.581688,-0.427795 0.473056,-0.140936 0.957489,-0.258745 1.423252,-0.422689 2.019556,-0.710867 4.904149,-2.999559 -3.927095,2.418643 0.824027,-0.42069 1.568622,-0.929906 1.959301,-1.803078 0.248863,-0.69787 0.149787,-1.39125 -0.245202,-2.023892 C 84.324552,32.876234 83.574221,32.30331 82.790209,31.846972 81.750656,31.259714 80.667745,30.786439 79.586377,30.283891 78.311853,29.622682 77.08295,28.871355 75.872603,28.100069 74.87118,27.422817 73.906061,26.710511 72.957416,25.961676 72.029751,25.339709 71.077775,24.750723 70.094833,24.220924 68.93299,23.677694 67.754279,23.174498 66.599845,22.61697 65.460094,21.987243 64.356757,21.298477 63.303342,20.531798 62.194713,19.70345 61.189354,18.740516 60.03174,17.974464 c -1.033234,-0.629482 -2.051599,-1.311436 -3.210021,-1.692371 -1.321116,-0.43102 -2.622092,-0.927222 -3.969395,-1.273262 0,0 5.174437,-3.543735 5.174437,-3.543735 z"
   inkscape:connector-curvature="0" /><path
   style="fill:#000000;fill-opacity:1"
   id="path31"
   d="m 81.566578,37.70612 c -2.244771,0.773719 -4.556633,1.315184 -6.846393,1.932481 -2.280589,0.614349 -4.47463,1.476599 -6.645108,2.395931 0.554005,-0.462704 -1.818239,1.002498 -1.366804,0.746262 1.603826,-0.910337 6.393344,-3.679768 4.795225,-2.75945 -1.927379,1.109932 -3.856354,2.217094 -5.783005,3.328289 -0.141258,0.08147 -0.562136,0.330829 -0.420688,0.249688 1.645131,-0.943721 3.287852,-1.891635 4.931779,-2.837452 -0.974889,0.558131 -1.835965,1.249454 -2.620929,2.047522 -0.703715,0.760723 -1.353454,1.566622 -2.036916,2.345787 -0.626133,0.75881 -1.213261,1.548076 -1.826365,2.317209 -0.655042,0.896247 -1.506424,1.583442 -2.369799,2.26413 -0.902208,0.650089 -1.874539,1.192043 -2.817572,1.778961 -2.746322,1.65753 -5.44209,3.439941 -8.383278,4.736529 -0.680462,0.197644 -1.751208,0.746828 -2.477343,0.550986 -0.109093,-0.02942 -0.194962,-0.114272 -0.292444,-0.171408 -1.506534,-2.524329 5.018213,-3.828338 7.415804,-4.89708 1.50957,-0.548049 2.999334,-1.140617 4.482202,-1.756986 1.409326,-0.592879 2.721721,-1.383411 4.079626,-2.083024 1.404546,-0.802459 2.843539,-1.542036 4.273238,-2.299136 0.784317,-0.44975 0.656953,-0.3875 1.435393,-0.793139 0.226805,-0.118186 0.903838,-0.478531 0.68306,-0.349435 -8.247324,4.822492 -5.014555,3.067163 -3.274387,1.62305 1.09562,-0.939154 1.938847,-2.124949 3.035161,-3.059941 2.624783,-1.793175 5.341381,-3.551618 8.286566,-4.757092 1.350541,-0.568359 2.773334,-0.856713 4.22126,-1.023442 1.173224,-0.20947 2.305553,-0.655564 3.352592,-1.220111 -9.185715,5.24022 -4.232311,2.950954 -2.758696,0.92094 0.480257,-0.773588 0.8843,-1.59593 1.164093,-2.462681 0,0 5.649822,-2.6837 5.649822,-2.6837 v 0 c -0.233542,0.92916 -0.630871,1.795637 -1.100305,2.629119 -1.544451,2.802417 -5.481405,3.989138 -7.805233,5.473855 -1.108398,0.505215 -2.261207,0.926208 -3.480354,1.057608 -1.4163,0.202142 -2.799928,0.555635 -4.104111,1.15782 -2.275581,1.074029 -0.764008,0.382048 4.135782,-2.473054 0.15247,-0.08884 -0.307479,0.173303 -0.459487,0.262934 -0.448315,0.264348 -0.908706,0.511244 -1.323847,0.827155 -1.243211,0.774987 -2.033874,2.047642 -3.095948,3.037488 -0.427546,0.369671 -0.793832,0.822451 -1.277415,1.115027 -2.658558,1.608476 -5.355387,3.102102 -8.081441,4.574677 -1.437363,0.766386 -2.877966,1.526528 -4.302874,2.315823 -1.349163,0.707725 -2.67311,1.472502 -4.096382,2.026461 -1.490453,0.608975 -2.994841,1.179602 -4.491144,1.773464 -0.233825,0.09523 -0.46765,0.190451 -0.701475,0.285677 -0.228295,0.08574 -0.458827,0.16575 -0.684884,0.257228 -0.195144,0.07897 -0.756458,0.365996 -0.578252,0.253926 11.616688,-7.305507 6.122683,-1.675855 4.632275,-3.254524 0.838799,-0.1119 1.644611,-0.364628 2.412454,-0.721724 2.243876,-1.013727 0.630508,-0.307758 -4.25049,2.55713 -0.16765,0.0984 0.341943,-0.185371 0.507918,-0.286572 0.482059,-0.293929 0.948796,-0.61476 1.435433,-0.901937 0.960821,-0.546695 1.885163,-1.157033 2.837375,-1.719189 0.884774,-0.615739 1.755206,-1.268412 2.428426,-2.120529 0.629531,-0.753647 1.179647,-1.565259 1.832351,-2.29929 0.295388,-0.438949 0.647274,-0.733875 0.98624,-1.132774 0.234056,-0.275439 0.421485,-0.588145 0.653319,-0.865457 0.120133,-0.143699 0.253746,-0.27557 0.380619,-0.413354 0.766471,-0.828275 1.550404,-1.626589 2.550115,-2.178749 1.913954,-1.119439 3.826442,-2.241388 5.741861,-3.358317 0.139245,-0.0812 0.561378,-0.317087 0.422058,-0.236021 -1.623218,0.944499 -6.498431,3.768428 -4.873806,2.826351 1.940876,-1.125463 3.876694,-2.259694 5.82256,-3.376508 0.49968,-0.286788 0.833426,-0.414407 1.371562,-0.65094 2.157992,-0.884647 4.353434,-1.676841 6.612359,-2.267284 2.348066,-0.622037 4.742039,-1.170999 6.961336,-2.180896 0,0 -4.902689,3.921688 -4.902689,3.921688 z"
   inkscape:connector-curvature="0" /><path
   style="fill:#000000;fill-opacity:1"
   id="path33"
   d="m 64.10213,46.762787 c -1.402601,-0.296109 -2.83355,-0.464082 -4.230474,-0.783437 0,0 5.095515,-3.537567 5.095515,-3.537567 v 0 c 1.38944,0.287388 2.801076,0.581989 4.220781,0.625938 0,0 -5.085822,3.695066 -5.085822,3.695066 z"
   inkscape:connector-curvature="0" /><path
   style="fill:#000000;fill-opacity:1"
   id="path35"
   d="m 54.670402,11.167538 c 1.239955,0.672785 2.524324,1.257177 3.76722,1.924069 1.210738,0.630004 2.120361,1.649563 2.990967,2.673653 0.133393,0.168127 0.266785,0.336254 0.400177,0.504382 0,0 -2.616918,1.558954 -2.616918,1.558954 v 0 C 59.085114,17.661751 58.95838,17.494907 58.831646,17.328062 57.979805,16.327503 57.068825,15.380039 55.8984,14.748164 c -1.254426,-0.706849 -2.559454,-1.310768 -3.880418,-1.882311 0,0 2.65242,-1.698315 2.65242,-1.698315 z"
   inkscape:connector-curvature="0" /><path
   style="fill:#000000;fill-opacity:1"
   id="path37"
   d="m 57.861891,10.52924 c 0.854205,0.651032 1.754004,1.238799 2.6113,1.885645 0.696378,0.473448 1.350927,0.989655 1.888988,1.639012 0.207523,0.30134 0.114185,0.147966 0.281763,0.459054 0,0 -2.722469,1.556546 -2.722469,1.556546 v 0 c -0.138821,-0.275504 -0.05979,-0.138446 -0.239725,-0.409652 -0.509073,-0.631304 -1.127522,-1.1434 -1.78516,-1.616363 -0.863714,-0.652011 -1.765426,-1.249022 -2.687116,-1.815927 0,0 2.652419,-1.698315 2.652419,-1.698315 z"
   inkscape:connector-curvature="0" /><path
   style="fill:#000000;fill-opacity:1"
   id="path39"
   d="m 65.498107,42.509629 c 0.673151,0.987476 1.54809,1.815393 2.433455,2.609535 0.83191,0.612105 1.6341,1.675831 2.704681,1.856572 1.0478,-0.420638 0.682185,-0.280921 -2.452901,1.359753 -0.04177,0.02186 0.07649,-0.06213 0.09356,-0.106074 0.0368,-0.09471 -0.01121,-0.317077 -0.02213,-0.393543 0,0 2.766293,-1.474066 2.766293,-1.474066 v 0 c 0.02259,0.100934 0.202352,0.710548 0.08585,0.788059 -2.595145,1.726614 -1.796027,1.833766 -3.055694,1.592462 -1.048317,-0.438754 -1.799187,-1.354437 -2.687436,-2.030555 -0.905978,-0.814047 -1.779616,-1.658285 -2.573186,-2.583918 0,0 2.707504,-1.618225 2.707504,-1.618225 z"
   inkscape:connector-curvature="0" /><path
   style="fill:#000000;fill-opacity:1"
   id="path41"
   d="m 60.859135,44.264852 c 0.876793,0.335133 1.775705,0.606859 2.67667,0.868294 0.741665,0.268104 1.467024,0.5764 2.164233,0.944838 0.325925,0.178323 0.676122,0.289013 1.036124,0.371396 0,0 -2.582662,1.775152 -2.582662,1.775152 v 0 c -0.367126,-0.11191 -0.723665,-0.250026 -1.059775,-0.437855 -0.680189,-0.34904 -1.373444,-0.675621 -2.100117,-0.917472 -0.904888,-0.280822 -1.808544,-0.56873 -2.722131,-0.819489 0,0 2.587658,-1.784864 2.587658,-1.784864 z"
   inkscape:connector-curvature="0" /><path
   style="fill:#000000;fill-opacity:1"
   id="path43"
   d="m 57.589695,48.136564 c 0.106158,0.626936 0.326593,1.236284 0.631604,1.793152 0.269258,0.556211 0.703171,0.926246 1.29702,1.087479 0.258567,-0.0142 0.152468,0.03648 0.324365,-0.138628 0,0 -2.478418,1.945066 -2.478418,1.945066 v 0 c -0.287651,0.003 -0.141164,0.01896 -0.438631,-0.05492 -0.615094,-0.267095 -1.122669,-0.665494 -1.407298,-1.289132 -0.313341,-0.591309 -0.535972,-1.22013 -0.716706,-1.863934 0,0 2.788064,-1.479086 2.788064,-1.479086 z"
   inkscape:connector-curvature="0" /><path
   style="fill:#000000;fill-opacity:1"
   id="path45"
   d="m 11.643222,30.207936 c 0.329289,0.542605 0.660495,1.119214 1.139888,1.547028 0.153214,0.136729 0.324723,0.25146 0.487084,0.37719 1.911798,1.203478 4.015696,2.06519 6.118599,2.871823 2.011921,0.652726 4.064215,1.166022 6.06691,1.848834 1.864131,0.586621 3.482927,1.66461 5.105869,2.717426 1.812641,1.183392 3.56086,2.458433 5.323543,3.714039 1.152776,0.861639 2.367774,1.630057 3.592982,2.383406 1.029105,0.693821 2.098164,1.323489 3.17297,1.942948 0.942159,0.596314 1.934583,1.103612 2.896063,1.665779 0.836163,0.476965 1.666371,0.962401 2.462003,1.505258 0.58907,0.289992 0.950054,0.765463 1.295892,1.298151 0.221468,0.36702 0.344148,0.784596 0.457424,1.195507 0.05214,0.221729 0.265586,0.792424 0.572048,0.541082 -2.680515,1.467623 -3.563719,1.879362 -2.561209,1.409401 0,0 2.860892,-1.339181 2.860892,-1.339181 v 0 c -0.02096,1.311721 0.06274,0.190907 -2.846452,1.807422 -0.436217,-0.140589 -0.669454,-0.4859 -0.788404,-0.918811 -0.0985,-0.382468 -0.216139,-0.768764 -0.405142,-1.116367 -0.328444,-0.5375 -0.630523,-0.891633 -1.194783,-1.211433 -0.781894,-0.541507 -1.602533,-1.021015 -2.421862,-1.503152 -0.9636,-0.555094 -1.954546,-1.061565 -2.884849,-1.6739 -1.070352,-0.632302 -2.152149,-1.246297 -3.178094,-1.950138 -1.21289,-0.765421 -2.411778,-1.550018 -3.53285,-2.44742 -1.73227,-1.285921 -3.489364,-2.536094 -5.302078,-3.706768 -1.621224,-1.021848 -3.241859,-2.065524 -5.08631,-2.645985 -1.991493,-0.690958 -4.038034,-1.196056 -6.028855,-1.888064 -2.141666,-0.836998 -4.262599,-1.743936 -6.26845,-2.874324 -0.17891,-0.134079 -0.367415,-0.256228 -0.536728,-0.402237 -0.5219444,-0.450104 -0.8628777,-1.064733 -1.275211,-1.606754 0,0 2.75911,-1.54076 2.75911,-1.54076 z"
   inkscape:connector-curvature="0" /><path
   style="fill:#000000;fill-opacity:1"
   id="path47"
   d="m 20.193716,36.325501 c 0.537995,0.676915 1.269502,1.121042 2.00559,1.55027 1.051699,0.549987 2.154385,0.986997 3.206424,1.536909 0.963942,0.492493 1.937747,0.95826 2.878111,1.49601 0.82229,0.53821 1.70212,0.978188 2.548333,1.477588 1.078768,0.676918 2.206475,1.267327 3.316896,1.888854 0.958985,0.511669 1.868142,1.108704 2.841063,1.594435 0.957014,0.432704 1.904326,0.88888 2.870792,1.300207 0.745414,0.23709 1.429945,0.612416 2.122773,0.967993 0.769943,0.453382 1.578321,0.838239 2.341351,1.303096 0.647598,0.317738 1.282989,0.659023 1.921367,0.994785 0.685224,0.379941 1.391898,0.719096 2.092741,1.069254 0.649789,0.290862 1.166005,0.777332 1.642033,1.293585 0.408044,0.472107 0.891339,0.785392 1.473287,0.995346 1.308528,0.333928 2.462181,-0.892676 -1.810371,1.441326 0,0 2.936499,-1.141308 2.936499,-1.141308 v 0 c -1.965298,1.091814 -2.16862,1.953293 -3.718897,1.438241 -0.602375,-0.258974 -1.116608,-0.608769 -1.539603,-1.117343 -0.459601,-0.489804 -0.964769,-0.92842 -1.58707,-1.201219 -0.689636,-0.367541 -1.395756,-0.701578 -2.080472,-1.078319 -0.648875,-0.333139 -1.301266,-0.660424 -1.943013,-1.006681 -0.750079,-0.461581 -1.525568,-0.88234 -2.30463,-1.292543 -0.701146,-0.328753 -1.387082,-0.68856 -2.114401,-0.958346 -0.95692,-0.436211 -1.911029,-0.87885 -2.864268,-1.323002 -0.973619,-0.491144 -1.882777,-1.094563 -2.841419,-1.613761 -1.103621,-0.642423 -2.232933,-1.239958 -3.338039,-1.879867 -0.846304,-0.495878 -1.723434,-0.937924 -2.545335,-1.474684 -0.932867,-0.530741 -1.896055,-1.002519 -2.846554,-1.500207 -1.067023,-0.535695 -2.175529,-0.982088 -3.231411,-1.539925 -0.769293,-0.445537 -1.50471,-0.92171 -2.117896,-1.574638 0,0 2.686119,-1.646056 2.686119,-1.646056 z"
   inkscape:connector-curvature="0" /><path
   style="fill:#000000;fill-opacity:1"
   id="path49"
   d="m 19.341813,34.954645 c 0.817242,0.46891 1.66841,0.870986 2.517295,1.278212 0.747329,0.328721 0.380817,0.197062 1.094821,0.407872 0,0 -2.539743,1.72307 -2.539743,1.72307 v 0 c -0.706679,-0.263158 -0.342261,-0.114335 -1.09063,-0.452844 -0.8768,-0.398219 -1.747309,-0.807317 -2.615283,-1.223535 0,0 2.63354,-1.732775 2.63354,-1.732775 z"
   inkscape:connector-curvature="0" /><path
   style="fill:#000000;fill-opacity:1"
   id="path51"
   d="m 12.098792,29.143785 c 0.429405,0.654134 1.037082,1.12163 1.692427,1.529433 0,0 -2.584879,1.658813 -2.584879,1.658813 v 0 C 10.534285,31.874114 9.8886549,31.38011 9.381408,30.736089 c 0,0 2.717384,-1.592304 2.717384,-1.592304 z"
   inkscape:connector-curvature="0" /><path
   style="fill:#000000;fill-opacity:1"
   id="path53"
   d="m 14.427092,27.148965 c 0.464947,0.442888 0.934274,0.882164 1.430461,1.289964 0,0 -2.625097,1.640111 -2.625097,1.640111 v 0 c -0.498403,-0.427848 -0.981681,-0.873596 -1.498498,-1.27972 0,0 2.693134,-1.650355 2.693134,-1.650355 z"
   inkscape:connector-curvature="0" /><path
   style="fill:#000000;fill-opacity:1"
   id="path55"
   d="m 15.487071,25.927615 c 0.729309,0.240749 1.38289,0.669851 1.989724,1.132294 0.343669,0.273592 0.590177,0.610089 0.759179,1.010821 0,0 -2.746546,1.52346 -2.746546,1.52346 v 0 c -0.108171,-0.362227 -0.341728,-0.639038 -0.630802,-0.88047 -0.581012,-0.439398 -1.225272,-0.849194 -1.955185,-0.973413 0,0 2.58363,-1.812692 2.58363,-1.812692 z"
   inkscape:connector-curvature="0" /><path
   style="fill:#000000;fill-opacity:1"
   id="path57"
   d="m 15.498107,28.467076 c 0.273698,0.317792 0.647738,0.903856 1.135776,0.901964 0.06482,-2.51e-4 0.122479,-0.0425 0.183718,-0.06375 0,0 -2.534344,1.856741 -2.534344,1.856741 v 0 c -0.640931,-0.118403 -1.070758,-0.611728 -1.492654,-1.076726 0,0 2.707504,-1.618225 2.707504,-1.618225 z"
   inkscape:connector-curvature="0" /><path
   style="fill:#000000;fill-opacity:1"
   id="path59"
   d="m 13.361003,26.819593 c 0.445964,0.927884 1.099036,1.735562 1.79608,2.485143 0.3013,0.350787 0.647565,0.541797 1.074533,0.683347 0,0 -2.581806,1.725909 -2.581806,1.725909 v 0 c -0.426444,-0.207678 -0.802354,-0.447431 -1.106542,-0.824066 -0.704232,-0.787628 -1.371835,-1.605494 -1.921781,-2.510496 0,0 2.739516,-1.559837 2.739516,-1.559837 z"
   inkscape:connector-curvature="0" /><path
   style="fill:#000000;fill-opacity:1"
   id="path61"
   d="m 18.474054,24.112329 c 0.989733,0.762936 2.030755,1.448775 3.099459,2.095772 0.67313,0.350154 0.347603,0.219942 0.965732,0.416739 0,0 -2.563781,1.721902 -2.563781,1.721902 v 0 c -0.602186,-0.274562 -0.285825,-0.112501 -0.941707,-0.500323 -1.068339,-0.675733 -2.122,-1.377704 -3.210753,-2.018811 0,0 2.65105,-1.715279 2.65105,-1.715279 z"
   inkscape:connector-curvature="0" /><path
   style="fill:#000000;fill-opacity:1"
   id="path63"
   d="m 21.67326,23.61187 c 0.544541,0.767044 1.174235,1.472903 1.658015,2.280456 0.01265,0.141587 0.0253,0.283175 0.03795,0.424762 0,0 -2.778038,1.398983 -2.778038,1.398983 v 0 c 0.02382,-0.09463 0.04764,-0.189265 0.07147,-0.283898 -0.451535,-0.824737 -1.107365,-1.508705 -1.706778,-2.227999 0,0 2.717384,-1.592304 2.717384,-1.592304 z"
   inkscape:connector-curvature="0" /><path
   style="fill:#000000;fill-opacity:1"
   id="path65"
   d="m 18.907302,25.101232 c 0.382444,0.6679 0.81326,1.308229 1.268433,1.928437 0.319383,0.387383 0.55696,0.554242 1.062986,0.516284 0,0 -2.542898,1.815612 -2.542898,1.815612 v 0 c -0.490127,-0.105573 -0.901249,-0.326065 -1.189437,-0.754596 -0.447577,-0.63192 -0.874161,-1.277901 -1.316467,-1.913433 0,0 2.717383,-1.592304 2.717383,-1.592304 z"
   inkscape:connector-curvature="0" /><path
   style="fill:#000000;fill-opacity:1"
   id="path67"
   d="m 22.944916,21.445799 c 0.727257,0.974411 1.853895,1.535297 2.883256,2.131733 0.691612,0.37971 1.413657,0.706363 2.145261,1.00129 0.175458,0.07073 0.348911,0.150324 0.532228,0.197051 0.117567,0.02997 0.241767,0.0207 0.362651,0.03105 0,0 -2.547735,1.778908 -2.547735,1.778908 v 0 c -1.056874,-0.311766 -2.022765,-0.897079 -3.010829,-1.371919 -1.087226,-0.618293 -2.225875,-1.204484 -3.072337,-2.149888 0,0 2.707505,-1.618226 2.707505,-1.618226 z"
   inkscape:connector-curvature="0" /><path
   style="fill:#000000;fill-opacity:1"
   id="path69"
   d="m 26.206908,21.989817 c -0.65487,0.0012 -1.380164,0.0283 -1.97787,0.333186 -0.108741,0.05547 -0.200818,0.138844 -0.301227,0.208265 5.329923,-2.898501 2.189116,-1.949273 2.281378,-0.866904 0.03136,0.367912 0.252325,0.67413 0.442868,0.973955 0.919249,1.080046 2.068561,1.93443 3.220859,2.748712 0,0 -2.549254,1.615695 -2.549254,1.615695 v 0 c -1.154259,-0.883463 -2.297797,-1.78875 -3.339743,-2.804506 -1.442239,-2.158443 -0.104237,-2.089642 2.360898,-3.621465 0.755373,-0.3446 1.58637,-0.430185 2.411117,-0.438913 0,0 -2.549026,1.851975 -2.549026,1.851975 z"
   inkscape:connector-curvature="0" /><path
   style="fill:#000000;fill-opacity:1"
   id="path71"
   d="m 28.099424,18.646249 c 1.199167,0.908019 2.45827,1.727393 3.774983,2.453447 0.504433,0.304984 1.018188,0.549779 1.587084,0.694778 0,0 -2.559108,1.738537 -2.559108,1.738537 v 0 c -0.541115,-0.216253 -1.048956,-0.489793 -1.547326,-0.793337 -1.327764,-0.762852 -2.588382,-1.63002 -3.906685,-2.408014 0,0 2.651052,-1.685411 2.651052,-1.685411 z"
   inkscape:connector-curvature="0" /><path
   style="fill:#000000;fill-opacity:1"
   id="path73"
   d="m 32.506119,19.122795 c 0.555592,0.825693 1.404894,1.342861 2.240698,1.844469 0.380337,0.23456 0.76622,0.446984 1.090922,0.754712 0,0 -2.680341,1.63193 -2.680341,1.63193 v 0 c -0.257458,-0.3167 -0.608177,-0.521719 -0.945612,-0.746111 -0.890855,-0.532271 -1.798894,-1.061378 -2.437543,-1.901618 0,0 2.731876,-1.583382 2.731876,-1.583382 z"
   inkscape:connector-curvature="0" /><path
   style="fill:#000000;fill-opacity:1"
   id="path75"
   d="m 31.886026,18.079955 c 0.571368,0.737192 1.305096,1.31395 2.062223,1.847997 0,0 -2.598436,1.648516 -2.598436,1.648516 v 0 c -0.772451,-0.580931 -1.533765,-1.182437 -2.181171,-1.904209 0,0 2.717384,-1.592304 2.717384,-1.592304 z"
   inkscape:connector-curvature="0" /><path
   style="fill:#000000;fill-opacity:1"
   id="path77"
   d="m 33.583214,16.764948 c 0.803526,1.001362 1.879578,1.716929 2.911033,2.45949 0.682732,0.465728 1.366846,0.930288 2.064152,1.374097 0.342418,0.217937 0.68099,0.43664 1.057795,0.58868 0.01681,-0.0156 0.03362,-0.0312 0.05044,-0.0468 0,0 -2.593946,1.832064 -2.593946,1.832064 v 0 c -0.02886,-0.02175 -0.05771,-0.0435 -0.08657,-0.06525 -1.0082,-0.689471 -1.997577,-1.406157 -3.020443,-2.074318 -1.07714,-0.755 -2.164142,-1.507526 -3.089967,-2.449738 0,0 2.707505,-1.618226 2.707505,-1.618226 z"
   inkscape:connector-curvature="0" /><path
   style="fill:#000000;fill-opacity:1"
   id="path79"
   d="m 36.576695,15.899969 c 1.00573,0.923385 2.236382,1.529856 3.453216,2.122083 0.76762,0.312588 0.404827,0.186388 1.082972,0.3938 0,0 -2.553529,1.724271 -2.553529,1.724271 v 0 c -0.646959,-0.267352 -0.298445,-0.115071 -1.042016,-0.464823 -1.249235,-0.64089 -2.517582,-1.257135 -3.626762,-2.129275 0,0 2.686119,-1.646056 2.686119,-1.646056 z"
   inkscape:connector-curvature="0" /><path
   style="fill:#000000;fill-opacity:1"
   id="path81"
   d="m 36.0689,14.802173 c -0.114949,0.867142 0.26678,1.683984 0.596015,2.462492 0.278769,0.481187 0.510566,1.230508 1.078466,1.446139 0.04776,-0.02237 0.09552,-0.04474 0.143285,-0.06711 0,0 -2.5475,1.850712 -2.5475,1.850712 v 0 c -0.07677,-0.02242 -0.153543,-0.04484 -0.230314,-0.06726 -0.560988,-0.393804 -0.839931,-1.055713 -1.131934,-1.654939 -0.345605,-0.82268 -0.721249,-1.673098 -0.735017,-2.579772 0,0 2.826999,-1.390258 2.826999,-1.390258 z"
   inkscape:connector-curvature="0" /><path
   style="fill:#000000;fill-opacity:1"
   id="path83"
   d="m 38.889098,13.59088 c 0.03964,0.06714 0.06831,0.142111 0.118924,0.20142 0.185718,0.217636 0.488343,0.429884 0.713053,0.585807 0.646537,0.448618 1.322316,0.834423 2.012811,1.20991 0,0 -2.523045,1.644718 -2.523045,1.644718 v 0 c -0.694017,-0.39221 -0.708217,-0.395617 -1.407507,-0.810131 -0.582035,-0.34501 -1.246144,-0.682636 -1.646112,-1.248341 0,0 2.731876,-1.583383 2.731876,-1.583383 z"
   inkscape:connector-curvature="0" /><path
   style="fill:#000000;fill-opacity:1"
   id="path85"
   d="m 43.108397,12.20213 c 0.04582,0.807764 0.37009,1.602168 0.756536,2.305833 0,0 -2.687312,1.538758 -2.687312,1.538758 v 0 c -0.389827,-0.758913 -0.702335,-1.578594 -0.881763,-2.411531 0,0 2.812539,-1.43306 2.812539,-1.43306 z"
   inkscape:connector-curvature="0" /><path
   style="fill:#000000;fill-opacity:1"
   id="path87"
   d="m 43.770881,11.271766 c 0.305941,0.748045 0.572035,1.511522 0.864117,2.265625 0.174882,0.636959 0.685322,1.61244 0.626381,2.277322 -0.0085,0.09621 -0.04956,0.186707 -0.07433,0.280061 -0.958175,0.582238 -1.91635,1.164477 -2.874525,1.746716 0,0 2.442147,-1.962842 2.442147,-1.962842 v 0 c -0.80788,0.502659 -1.61576,1.005317 -2.423641,1.507976 0.04956,-0.05499 0.12084,-0.09638 0.148673,-0.164974 0.182395,-0.449527 -0.383366,-1.733488 -0.516328,-2.193052 -0.303533,-0.743654 -0.590477,-1.498565 -0.9516,-2.216072 0,0 2.759109,-1.54076 2.759109,-1.54076 z"
   inkscape:connector-curvature="0" /><path
   style="fill:#000000;fill-opacity:1"
   id="path89"
   d="m 41.889331,12.584102 c 0.534089,0.913053 1.073199,1.823485 1.597307,2.742586 0.199784,0.492687 0.696887,1.130733 0.590133,1.697377 -0.01821,0.09666 -0.03634,0.216551 -0.118856,0.270076 -0.945427,0.613248 -1.947422,1.134535 -2.921134,1.701803 0,0 2.448657,-1.945702 2.448657,-1.945702 v 0 c -0.804336,0.489341 -1.610548,0.975612 -2.413009,1.468023 -0.06585,0.04041 0.15472,-0.05155 0.202974,-0.111886 0.05257,-0.06573 0.08115,-0.155866 0.07845,-0.239984 -0.01401,-0.437568 -0.370834,-0.920853 -0.51392,-1.315835 -0.512183,-0.926405 -1.05892,-1.833676 -1.6746,-2.695376 0,0 2.723994,-1.571082 2.723994,-1.571082 z"
   inkscape:connector-curvature="0" /><path
   style="fill:#000000;fill-opacity:1"
   id="path91"
   d="m 38.617274,14.57037 c -0.347101,0.771557 -0.308973,1.17349 -0.06763,1.981112 0.306792,0.930305 0.824091,1.739443 1.46067,2.473097 0,0 -2.645154,1.587846 -2.645154,1.587846 v 0 c -0.625791,-0.783488 -1.134854,-1.643961 -1.49314,-2.584077 -0.333712,-0.878805 -0.421158,-1.241549 -0.123013,-2.131447 0,0 2.868265,-1.326531 2.868265,-1.326531 z"
   inkscape:connector-curvature="0" /></svg>