<?xml version="1.0" encoding="UTF-8" standalone="no"?>
<!-- Created with Inkscape (http://www.inkscape.org/) -->

<svg
   width="100mm"
   height="100mm"
   viewBox="0 0 100 100"
   version="1.1"
   id="svg928"
   inkscape:version="1.1.2 (0a00cf5339, 2022-02-04)"
   sodipodi:docname="MQMrojoy azul.svg"
   inkscape:export-filename="/home/benja/Documents/Documentación personal/MQMrojoy azul.png"
   inkscape:export-xdpi="96"
   inkscape:export-ydpi="96"
   xmlns:inkscape="http://www.inkscape.org/namespaces/inkscape"
   xmlns:sodipodi="http://sodipodi.sourceforge.net/DTD/sodipodi-0.dtd"
   xmlns="http://www.w3.org/2000/svg"
   xmlns:svg="http://www.w3.org/2000/svg">
  <sodipodi:namedview
     id="namedview930"
     pagecolor="#ffffff"
     bordercolor="#666666"
     borderopacity="1.0"
     inkscape:pageshadow="2"
     inkscape:pageopacity="0.0"
     inkscape:pagecheckerboard="0"
     inkscape:document-units="mm"
     showgrid="false"
     width="100mm"
     inkscape:zoom="2.0681594"
     inkscape:cx="181.07888"
     inkscape:cy="159.56217"
     inkscape:window-width="1920"
     inkscape:window-height="1015"
     inkscape:window-x="0"
     inkscape:window-y="0"
     inkscape:window-maximized="1"
     inkscape:current-layer="layer1" />
  <defs
     id="defs925">
    <inkscape:path-effect
       effect="skeletal"
       id="path-effect25337-5"
       is_visible="true"
       lpeversion="1"
       pattern="m 23.914843,214.82096 a 12.352912,8.5520738 0 0 0 -2.54676,5.1927 12.352912,8.5520738 0 0 0 2.2222,4.88837 13.267913,9.5957946 0 0 0 2.14885,-5.22528 13.267913,9.5957946 0 0 0 -1.82429,-4.85579 z"
       copytype="single_stretched"
       prop_scale="1"
       scale_y_rel="false"
       spacing="0"
       normal_offset="0"
       tang_offset="0"
       prop_units="false"
       vertical_pattern="false"
       hide_knot="false"
       fuse_tolerance="0" />
    <inkscape:path-effect
       effect="skeletal"
       id="path-effect5125"
       is_visible="true"
       lpeversion="1"
       pattern="M 123.8819,58.27821 A 68.575806,68.575806 0 0 1 167.58256,144.85497 68.575806,68.575806 0 0 1 81.005798,188.55562 68.575806,68.575806 0 0 1 37.305146,101.97887 68.575806,68.575806 0 0 1 123.8819,58.27821 Z"
       copytype="single_stretched"
       prop_scale="8.18366e-08"
       scale_y_rel="false"
       spacing="0"
       normal_offset="0"
       tang_offset="0"
       prop_units="false"
       vertical_pattern="false"
       hide_knot="false"
       fuse_tolerance="0" />
  </defs>
  <g
     inkscape:label="Layer 1"
     inkscape:groupmode="layer"
     id="layer1">
    <g
       id="g1972"
       style="display:inline"
       transform="matrix(0.37780008,0,0,0.37780008,11.296704,-0.81813655)">
      <path
         style="fill:#000080;fill-opacity:1;stroke:none;stroke-width:0.264583px;stroke-linecap:butt;stroke-linejoin:miter;stroke-opacity:1"
         d="m 76.28719,104.75845 -1.1e-5,-20.000008 37.229751,35.218408 17.14644,-17.29969 -2.06285,17.08128 -17.64125,17.79892 -36.659118,-34.6786 1.987027,-18.120318"
         id="path12772"
         sodipodi:nodetypes="cccccccc" />
      <path
         style="fill:#df0024;fill-opacity:1;stroke:none;stroke-width:0.264583px;stroke-linecap:butt;stroke-linejoin:miter;stroke-opacity:1"
         d="m 73.235189,116.87133 3.051997,-12.11288 16.768474,15.86253 35.54486,-35.862538 2.06285,17.918718 -35.05006,35.36331 z"
         id="path9492"
         sodipodi:nodetypes="ccccccc" />
      <path
         style="fill:#df0024;fill-opacity:1;stroke:none;stroke-width:0.144716px;stroke-linecap:butt;stroke-linejoin:miter;stroke-opacity:1"
         d="m 136.67905,211.26547 c -1.96565,-0.62299 -3.85492,-1.39355 -5.63777,-2.25845 -6.89458,-3.45449 -13.76783,-5.02612 -19.84972,-5.37837 v 0 c -6.38239,-0.35886 -11.94829,0.57707 -16.22935,1.79758 v 0 c -4.832912,1.37557 -8.418633,3.19098 -10.653309,4.61115 h -1e-6 c -1.257915,0.79921 -2.149434,1.51095 -2.707474,2.07843 v 0 c -0.292796,0.29776 -0.492556,0.55401 -0.604827,0.76628 v 0 c 0,0 -10e-7,0 -10e-7,0 -0.05705,0.10824 -0.09114,0.20419 -0.102923,0.28804 0,0 0,0 0,0 -0.0059,0.0423 -0.0062,0.0814 -8.45e-4,0.1173 0.0052,0.035 0.01551,0.0664 0.03113,0.0953 0.01748,0.0288 0.04008,0.0539 0.0683,0.0764 0,0 0,0 0,0 0.0282,0.0224 0.06179,0.0417 0.100711,0.0579 0.07679,0.0321 0.175003,0.0527 0.294228,0.0618 0,0 0,0 0,0 v 0 c 0.230828,0.0185 0.545201,-0.004 0.939303,-0.0633 v 0 c 0.744395,-0.11166 1.816513,-0.35738 3.174002,-0.67132 v 0 c 2.403493,-0.55519 6.077552,-1.41318 10.549591,-1.86419 v 0 c 3.978325,-0.39758 8.945085,-0.49539 14.260645,0.46409 v 0 c 0,0 1e-5,0 1e-5,0 4.95593,0.88508 10.37075,2.74499 15.66764,5.95546 0.11398,0.0537 0.22754,0.1077 0.34069,0.16209 6.8007,3.38742 13.60593,4.77768 19.65387,4.75134 v 0 c 6.13056,-0.0542 11.332,-1.55019 15.20779,-3.26079 v 0 c 4.39806,-1.93988 7.4985,-4.27609 9.33465,-5.9983 v 0 0 c 1.05473,-0.98877 1.76767,-1.84209 2.18411,-2.4977 v 0 c 0.22033,-0.34689 0.35785,-0.63756 0.41899,-0.87034 v 0 c 0,0 0,0 0,0 0.032,-0.1199 0.0431,-0.22265 0.0343,-0.30943 v 0 c 0,0 0,0 0,0 -0.0103,-0.0502 -6.4e-4,-0.0685 0.0119,-0.0741 0,0 0,0 0,0 0.0119,-0.005 0.0264,7.1e-4 0.0294,0.002 5e-5,3e-5 1e-4,6e-5 1.3e-4,1e-4 0,0 -3e-5,-5e-5 -1.4e-4,-1e-4 0,0 0,0 0,0 0,0 0,0 0,0 0,0 0,0 0,0 0,0 0,0 0,0 0,0 0,0 0,0 0,0 0,0 0,0 0,0 0,0 0,0 0,0 0,0 0,0 0,0 0,0 0,0 0,0 0,0 0,0 -0.002,-8.8e-4 -0.0186,-0.009 -0.067,-0.0446 0,0 0,0 0,0 -0.049,-0.0355 -0.1303,-0.0982 -0.26098,-0.20724 0,0 0,0 0,0 v 0 c -0.0827,-0.0217 -0.18328,-0.0298 -0.3002,-0.024 v 0 c -0.23037,0.0142 -0.53254,0.0813 -0.90328,0.19617 v 0 c -0.69689,0.21584 -1.67387,0.60742 -2.90914,1.10006 v 0 c -2.13681,0.85086 -5.44922,2.16543 -9.47396,3.05194 v 0 c -3.55975,0.78007 -8.05401,1.28916 -12.86627,0.65273 v 0 c 0,0 0,0 0,0 -3.1,-0.39126 -6.37028,-1.27989 -9.73422,-2.76407 z"
         id="path25289-7"
         inkscape:path-effect="#path-effect25337-5"
         inkscape:original-d="m 80.847497,213.25117 c 0,0 23.001153,-13.82676 47.897373,-0.084 24.89622,13.74273 44.44937,-3.86262 44.44937,-3.86262"
         inkscape:export-filename="/home/benja/Documents/Documentación personal/mqmr223mbseSHORT.png"
         inkscape:export-xdpi="96"
         inkscape:export-ydpi="96" />
      <g
         id="g89396"
         inkscape:export-filename="/home/benja/Documents/Documentación personal/mqmr223mbseSHORT.png"
         inkscape:export-xdpi="96"
         inkscape:export-ydpi="96"
         transform="rotate(-71.782908,102.44385,123.41692)">
        <path
           id="path23970-9"
           style="fill:none;stroke:#000080;stroke-width:16.265;stroke-opacity:1"
           d="M 171.01966,123.41692 A 68.575806,68.575806 0 0 1 102.44385,191.99273 68.575806,68.575806 0 0 1 33.868047,123.41692 68.575806,68.575806 0 0 1 102.44385,54.841117 68.575806,68.575806 0 0 1 171.01966,123.41692 Z"
           inkscape:export-filename="/home/benja/Documents/Documentación personal/path23970.png"
           inkscape:export-xdpi="96"
           inkscape:export-ydpi="96" />
        <g
           transform="matrix(0.28685253,-0.98968771,0.98968771,0.28685253,127.50527,169.14128)"
           id="text52124-3-0"
           style="font-weight:bold;font-size:10.5833px;line-height:1.25;-inkscape-font-specification:'sans-serif Bold';letter-spacing:0px;word-spacing:0px;white-space:pre;display:inline;fill:#ffffff" />
        <g
           transform="matrix(0.28685253,-0.98968771,0.98968771,0.28685253,127.50527,169.14128)"
           id="text52124-3-0-6"
           style="font-weight:bold;font-size:10.5833px;line-height:1.25;-inkscape-font-specification:'sans-serif Bold';letter-spacing:0px;word-spacing:0px;white-space:pre;display:inline;fill:#ffffff" />
        <g
           aria-label="MBSE QUALITY MODEL"
           transform="rotate(-73.211646,102.65757,124.31664)"
           id="text16135"
           style="font-size:10.9344px;line-height:1.25;letter-spacing:0px;word-spacing:0px;white-space:pre;fill:#ffffff">
          <path
             d="m 168.10304,127.83163 6.25383,-1.38604 0.003,-0.0436 q -0.21886,-0.007 -0.65659,-0.0197 -0.43773,-0.0131 -0.94085,-0.0314 -0.49222,-0.0175 -0.89551,-0.0498 l -3.61864,-0.28972 0.11781,-1.47143 7.78226,0.62306 -0.17977,2.2453 -6.09861,1.36556 -0.003,0.0327 5.79494,2.42747 -0.17976,2.2453 -7.78226,-0.62306 0.12304,-1.53683 3.68404,0.29495 q 0.37058,0.0297 0.84929,0.079 0.47783,0.0602 0.90204,0.10512 0.43424,0.0567 0.65135,0.0851 l 0.003,-0.0436 -5.93226,-2.49331 z"
             style="font-weight:bold;font-family:'Droid Sans Fallback';-inkscape-font-specification:'Droid Sans Fallback Bold'"
             id="path3194" />
          <path
             d="m 174.40438,138.85671 q -0.33846,1.52655 -0.93824,2.21117 -0.59979,0.68461 -1.67798,0.44556 -0.65119,-0.14437 -1.03091,-0.55336 -0.38208,-0.39831 -0.35272,-0.9854 l -0.0534,-0.0118 q -0.15994,0.36774 -0.42073,0.63472 -0.26079,0.26697 -0.66398,0.36798 -0.40319,0.10101 -1.001,-0.0315 -1.03549,-0.22958 -1.45695,-1.10702 -0.42146,-0.87743 -0.1327,-2.1798 l 0.63194,-2.85027 7.62207,1.68991 z m -3.06131,-0.48833 q -0.15621,0.70456 0.009,1.02115 0.16265,0.32725 0.58965,0.42193 0.43768,0.097 0.70084,-0.18062 0.26316,-0.27765 0.417,-0.97154 l 0.18935,-0.85401 -1.69735,-0.37632 z m -1.07274,-1.22343 -1.98559,-0.44023 -0.23431,1.05684 q -0.16094,0.72591 0.0527,1.07568 0.22432,0.35213 0.69403,0.45627 0.42701,0.0947 0.74948,-0.14742 0.33078,-0.22906 0.50119,-0.99768 z"
             style="font-weight:bold;font-family:'Droid Sans Fallback';-inkscape-font-specification:'Droid Sans Fallback Bold'"
             id="path3196" />
          <path
             d="m 166.17185,146.99247 q -0.98491,-0.33016 -1.33605,-1.2436 -0.34425,-0.89961 0.0936,-2.2059 0.39272,-1.17152 1.14782,-1.94478 l 1.46181,0.49003 q -0.40533,0.45228 -0.78998,0.94609 -0.37776,0.50765 -0.56543,1.06749 -0.19462,0.58057 -0.0568,0.892 0.14467,0.32528 0.4868,0.43997 0.27992,0.0938 0.54293,-0.0371 0.25954,-0.12058 0.53315,-0.38636 0.28398,-0.26231 0.61998,-0.61098 0.21129,-0.21748 0.47795,-0.46253 0.27703,-0.24157 0.61969,-0.43808 0.34954,-0.18267 0.77148,-0.23728 0.42194,-0.0546 0.92994,0.11568 0.99527,0.33364 1.31885,1.19171 0.33394,0.86155 -0.0553,2.0227 -0.19462,0.58058 -0.50316,1.05377 -0.31202,0.48355 -0.75198,0.97035 l -1.05307,-0.91809 q 0.37764,-0.4385 0.62722,-0.8046 0.24958,-0.3661 0.39207,-0.79116 0.14944,-0.4458 0.022,-0.75375 -0.12742,-0.30796 -0.45917,-0.41917 -0.39396,-0.13207 -0.74021,0.14397 -0.34624,0.27603 -0.91085,0.85944 -0.4607,0.47984 -0.88305,0.7765 -0.42582,0.30701 -0.89277,0.39267 -0.46694,0.0857 -1.04751,-0.10897 z"
             style="font-weight:bold;font-family:'Droid Sans Fallback';-inkscape-font-specification:'Droid Sans Fallback Bold'"
             id="path3198" />
          <path
             d="m 161.75263,151.72873 1.82748,-4.10569 7.13252,3.17474 -1.82748,4.10569 -1.2387,-0.55135 1.15607,-2.59728 -1.56836,-0.69809 -1.07603,2.41747 -1.2387,-0.55136 1.07603,-2.41746 -1.83807,-0.81814 -1.15607,2.59728 z"
             style="font-weight:bold;font-family:'Droid Sans Fallback';-inkscape-font-specification:'Droid Sans Fallback Bold'"
             id="path3200" />
          <path
             d="m 159.0806,163.77141 q -1.09879,-0.71718 -1.64758,-1.63685 -0.53963,-0.91368 -0.37716,-1.98281 l -2.78602,0.42744 1.15944,-1.77637 2.24798,-0.24327 0.0657,-0.10072 q 0.69327,-1.06216 1.56869,-1.48314 0.86944,-0.41183 1.85056,-0.25457 0.97515,0.16642 1.99153,0.82981 1.01637,0.66339 1.55206,1.4831 0.5297,0.82886 0.49351,1.78455 -0.033,0.97082 -0.73226,2.04213 -0.69328,1.06216 -1.56272,1.47399 -0.86028,0.4178 -1.83543,0.25138 -0.97196,-0.15128 -1.98834,-0.81467 z m 3.11376,-4.77057 q -1.02554,-0.66936 -1.8777,-0.66411 -0.84301,0.0112 -1.41078,0.88111 -0.57972,0.88819 -0.24472,1.65526 0.34417,0.77305 1.3697,1.44242 1.03469,0.67534 1.87173,0.67326 0.83703,-0.002 1.41077,-0.88111 0.57375,-0.87903 0.24472,-1.65525 -0.32903,-0.77623 -1.36372,-1.45158 z"
             style="font-weight:bold;font-family:'Droid Sans Fallback';-inkscape-font-specification:'Droid Sans Fallback Bold'"
             id="path3202" />
          <path
             d="m 152.75643,169.52687 q -0.61475,-0.52612 -0.87857,-1.22684 -0.26263,-0.68531 -0.0842,-1.48244 0.17968,-0.78172 0.89065,-1.61246 1.00957,-1.17966 2.13382,-1.28251 1.13256,-0.0957 2.12115,0.7503 l 3.82142,3.27045 -1.07356,1.25443 -3.63035,-3.10693 q -0.73106,-0.62565 -1.28607,-0.58253 -0.55502,0.0431 -1.05981,0.63295 -0.52611,0.61475 -0.43674,1.16617 0.0823,0.55973 0.77178,1.14984 l 3.62204,3.09981 -1.07356,1.25443 z"
             style="font-weight:bold;font-family:'Droid Sans Fallback';-inkscape-font-specification:'Droid Sans Fallback Bold'"
             id="path3204" />
          <path
             d="m 145.86678,172.25114 1.67649,0.98386 2.09318,-1.92377 -0.83922,-1.75338 1.31227,-1.20606 3.2764,7.63694 -1.48938,1.36884 -7.34201,-3.90037 z m 4.5529,2.69159 q 0.16604,0.0999 0.42282,0.25 0.25678,0.15012 0.52097,0.3083 0.26418,0.15817 0.45241,0.28219 -0.10772,-0.19801 -0.25724,-0.50612 -0.15017,-0.29267 -0.28554,-0.56923 -0.13603,-0.26111 -0.18521,-0.37926 l -0.81768,-1.71378 -1.49743,1.37624 z"
             style="font-weight:bold;font-family:'Droid Sans Fallback';-inkscape-font-specification:'Droid Sans Fallback Bold'"
             id="path3206" />
          <path
             d="m 143.73706,174.02056 4.65687,6.26621 -1.32521,0.98486 -3.84159,-5.16919 -2.5451,1.89145 -0.81528,-1.09703 z"
             style="font-weight:bold;font-family:'Droid Sans Fallback';-inkscape-font-specification:'Droid Sans Fallback Bold'"
             id="path3208" />
          <path
             d="m 136.23747,179.16252 3.01074,-1.88789 0.49956,0.79669 -0.57359,0.87592 2.68371,4.27987 1.0383,-0.13482 0.49957,0.79669 -3.01073,1.88789 -0.49957,-0.79669 0.57359,-0.87592 -2.68371,-4.27988 -1.0383,0.13483 z"
             style="font-weight:bold;font-family:'Droid Sans Fallback';-inkscape-font-specification:'Droid Sans Fallback Bold'"
             id="path3210" />
          <path
             d="m 132.41894,181.22854 1.4646,-0.76225 2.96827,5.70324 1.88168,-0.97933 0.63605,1.22213 -5.22797,2.7209 -0.63605,-1.22212 1.88168,-0.97932 z"
             style="font-weight:bold;font-family:'Droid Sans Fallback';-inkscape-font-specification:'Droid Sans Fallback Bold'"
             id="path3212" />
          <path
             d="m 128.87966,187.85275 -0.31999,3.58976 -1.65506,0.66137 0.63736,-5.38864 -1.12799,-2.82273 1.52305,-0.60863 1.1077,2.77196 4.19579,3.51615 -1.6652,0.66544 z"
             style="font-weight:bold;font-family:'Droid Sans Fallback';-inkscape-font-specification:'Droid Sans Fallback Bold'"
             id="path3214" />
          <path
             d="m 117.11845,186.70861 3.10207,5.60434 0.0428,-0.009 q -0.0558,-0.21174 -0.16728,-0.63522 -0.11152,-0.42349 -0.23656,-0.91117 -0.12279,-0.47698 -0.20616,-0.87287 l -0.74801,-3.55232 1.44446,-0.30417 1.60869,7.63963 -2.20415,0.46413 -3.03843,-5.4613 -0.0321,0.007 -0.68508,6.24537 -2.20415,0.46413 -1.60869,-7.63963 1.50867,-0.31768 0.76153,3.61652 q 0.0766,0.36379 0.16504,0.83683 0.0777,0.4753 0.15491,0.89484 0.0687,0.4325 0.10308,0.64875 l 0.0428,-0.009 0.70929,-6.39573 z"
             style="font-weight:bold;font-family:'Droid Sans Fallback';-inkscape-font-specification:'Droid Sans Fallback Bold'"
             id="path3216" />
          <path
             d="m 103.40149,192.32495 q -0.0791,-1.21114 0.26548,-2.14313 0.33438,-0.92036 1.11994,-1.47572 0.78556,-0.55535 2.06216,-0.63872 1.2657,-0.0827 2.12772,0.36511 0.85111,0.44847 1.31397,1.32773 0.45194,0.87997 0.53103,2.09111 0.0791,1.21114 -0.25528,2.13151 -0.34528,0.92108 -1.13155,1.46552 -0.79647,0.55607 -2.07308,0.63943 -1.26569,0.0827 -2.11681,-0.36581 -0.8504,-0.43756 -1.30234,-1.31754 -0.46214,-0.86835 -0.54124,-2.07949 z m 5.68472,-0.37123 q -0.0798,-1.22205 -0.5953,-1.90064 -0.51479,-0.66767 -1.55135,-0.59998 -1.05838,0.0691 -1.47104,0.79736 -0.41196,0.73915 -0.33215,1.9612 0.0805,1.23296 0.58439,1.90135 0.50387,0.66838 1.55134,0.59998 1.04747,-0.0684 1.47105,-0.79736 0.42358,-0.72895 0.34306,-1.96191 z"
             style="font-weight:bold;font-family:'Droid Sans Fallback';-inkscape-font-specification:'Droid Sans Fallback Bold'"
             id="path3218" />
          <path
             d="m 94.824035,191.97609 q 0.116267,-1.97571 1.299662,-2.91377 1.171838,-0.92779 3.191208,-0.80896 l 2.204935,0.12976 -0.45865,7.79368 -2.445072,-0.14389 q -1.222537,-0.0719 -2.091915,-0.56124 -0.880293,-0.48994 -1.321387,-1.37025 -0.452652,-0.87004 -0.378781,-2.12533 z m 1.716305,0.0572 q -0.07644,1.29895 0.455836,1.9327 0.531635,0.64467 1.612271,0.70827 l 0.884157,0.052 0.298697,-5.07572 -0.709508,-0.0418 q -2.390498,-0.14068 -2.541453,2.42447 z"
             style="font-weight:bold;font-family:'Droid Sans Fallback';-inkscape-font-specification:'Droid Sans Fallback Bold'"
             id="path3220" />
          <path
             d="m 89.019967,187.01539 4.433114,0.73748 -1.281178,7.70133 -4.433113,-0.73749 0.222501,-1.33748 2.804403,0.46653 0.281716,-1.69343 -2.610252,-0.43423 0.222501,-1.33749 2.610252,0.43424 0.330163,-1.98465 -2.804402,-0.46654 z"
             style="font-weight:bold;font-family:'Droid Sans Fallback';-inkscape-font-specification:'Droid Sans Fallback Bold'"
             id="path3222" />
          <path
             d="m 87.427295,186.65957 -1.98892,7.54957 -1.596617,-0.42062 1.64072,-6.22787 -3.066351,-0.80782 0.3482,-1.32171 z"
             style="font-weight:bold;font-family:'Droid Sans Fallback';-inkscape-font-specification:'Droid Sans Fallback Bold'"
             id="path3224" />
        </g>
      </g>
      <g
         id="g89436"
         transform="translate(-0.81877428,-0.55638565)"
         inkscape:export-filename="/home/benja/Documents/Documentación personal/mqmr223mbseSHORT.png"
         inkscape:export-xdpi="96"
         inkscape:export-ydpi="96">
        <g
           id="g89390"
           transform="translate(-162.5576,19.932572)"
           style="fill:#000080">
          <rect
             style="fill:#000080;fill-opacity:1;stroke:none;stroke-width:3.82253;stroke-linecap:round;stroke-miterlimit:4;stroke-dasharray:none;stroke-opacity:1"
             id="rect89281"
             width="18.243765"
             height="77.316963"
             x="221.4198"
             y="65.382256" />
        </g>
        <g
           id="g8438"
           style="fill:#c00000;fill-opacity:1">
          <rect
             style="fill:#df0024;fill-opacity:1;stroke:none;stroke-width:3.82253;stroke-linecap:round;stroke-miterlimit:4;stroke-dasharray:none;stroke-opacity:1"
             id="rect89124"
             width="18.243765"
             height="77.316963"
             x="291.9769"
             y="65.382256"
             transform="translate(-162.5576,19.932572)" />
        </g>
      </g>
      <path
         style="fill:#000080;fill-opacity:1;stroke:none;stroke-width:0.264583px;stroke-linecap:butt;stroke-linejoin:miter;stroke-opacity:1"
         d="m 83.596778,111.67314 c -0.02965,-0.0281 -7.279937,-6.88663 -7.309591,-6.91469 8e-6,0.0696 8e-6,14.93044 8e-6,15 0.05257,0.0497 19.273542,18.23228 19.326116,18.28202 6.923989,-6.98587 11.385599,-11.48735 4.461609,-4.50148 2.4e-4,-2.4e-4 -4.461846,4.50172 -4.461607,4.50148 -0.0038,-0.004 -19.32231,-18.27841 -19.326126,-18.28202 -2e-6,-7.8e-4 -2e-6,-14.99922 -2e-6,-14.99999 0,-1e-5 0,-1e-5 0,-1e-5 -0.0026,-0.002 16.771082,15.86501 16.768469,15.86254 -0.0063,0.006 30.901566,-31.17776 30.895226,-31.171365 0.0127,-0.01283 4.63692,-4.678356 4.64964,-4.691187 1e-5,0.127755 0,19.872252 0,20.000002 -15.16115,15.29666 -37.263944,37.59699 -22.1028,22.30034 0.002,-0.002 22.10033,-22.29785 22.1028,-22.30034 0,-10e-4 -10e-6,-19.998819 -10e-6,-19.999991 0,0 0,-7e-6 0,-7e-6 0.0182,-0.01832 -35.563013,35.880868 -35.544856,35.862548 -0.0017,-0.002 -9.457214,-8.94627 -9.458876,-8.94785 z"
         id="path5083"
         inkscape:path-effect="#path-effect5125"
         inkscape:original-d="m 103.28629,130.29892 25.31423,-25.54048 V 84.758442 L 93.05565,120.62099 76.28719,104.75845 v 15 l 19.326121,18.28202 z" />
    </g>
  </g>
</svg>
