<?xml version="1.0" encoding="utf-8"?>
<!-- Generator: Adobe Illustrator 24.1.1, SVG Export Plug-In . SVG Version: 6.00 Build 0)  -->
<svg version="1.1" id="Layer_1" xmlns="http://www.w3.org/2000/svg" xmlns:xlink="http://www.w3.org/1999/xlink" x="0px" y="0px"
	 viewBox="0 0 512 512" style="enable-background:new 0 0 512 512;" xml:space="preserve">
<g>
	<path d="M346.4,286.9c-5.2-5.2-13.8-5.2-19.1,0l-57.8,57.8V13.5C269.5,6,263.5,0,256,0c-7.4,0-13.5,6-13.5,13.5v331.2l-57.8-57.8
		c-5.2-5.2-13.8-5.2-19.1,0c-5.2,5.2-5.2,13.8,0,19.1l80.8,80.8c2.6,2.6,6.1,3.9,9.5,3.9s6.9-1.3,9.5-3.9l80.8-80.8
		C351.7,300.7,351.7,292.1,346.4,286.9L346.4,286.9z"/>
	<path d="M417.7,512H94.3c-22.3,0-40.4-18.1-40.4-40.4V202.1c0-22.3,18.1-40.4,40.4-40.4h107.8c7.4,0,13.5,6,13.5,13.5
		c0,7.4-6,13.5-13.5,13.5H94.3c-7.4,0-13.5,6-13.5,13.5v269.5c0,7.4,6,13.5,13.5,13.5h323.4c7.4,0,13.5-6,13.5-13.5V202.1
		c0-7.4-6-13.5-13.5-13.5H309.9c-7.4,0-13.5-6-13.5-13.5c0-7.4,6-13.5,13.5-13.5h107.8c22.3,0,40.4,18.1,40.4,40.4v269.5
		C458.1,493.9,440,512,417.7,512z"/>
</g>
</svg>
