<?xml version="1.0" encoding="utf-8"?>
<svg version="1.1" x="0px" y="0px" enable-background="new 0 0 1000 1000" viewBox="0 0 1300 1300" xmlns="http://www.w3.org/2000/svg">
  <g>
    <path d="M 138.144 1139.7 C 66.044 1139.7 7.544 1081.2 7.544 1009.1 L 7.544 290.9 C 7.544 218.8 66.044 160.3 138.144 160.3 L 791.344 160.3 C 863.444 160.3 921.944 218.8 921.944 290.9 L 921.944 421.5 L 856.644 421.5 L 856.644 290.9 C 856.644 254.8 827.444 225.6 791.344 225.6 L 138.144 225.6 C 102.044 225.6 72.844 254.8 72.844 290.9 L 72.844 1009.1 C 72.844 1045.2 102.044 1074.4 138.144 1074.4 L 791.344 1074.4 C 827.444 1074.4 856.644 1045.2 856.644 1009.1 L 856.644 878.5 L 921.944 878.5 L 921.944 1009.1 C 921.944 1081.2 863.444 1139.7 791.344 1139.7 L 138.144 1139.7 L 138.144 1139.7 Z"/>
    <path d="M 1009.563 854.106 C 996.767 866.928 996.767 887.562 1009.563 900.384 C 1022.461 913.205 1043.318 913.205 1056.115 900.384 L 1283.131 674.804 C 1289.982 667.993 1292.904 658.978 1292.401 650.063 C 1292.804 641.148 1289.882 632.132 1283.131 625.321 L 1056.115 399.541 C 1043.218 386.82 1022.36 386.82 1009.563 399.541 C 996.767 412.363 996.767 432.997 1009.563 445.819 L 1182.067 617.308 L 525.405 617.308 C 507.268 617.308 492.456 631.932 492.456 649.962 C 492.456 667.993 507.167 682.617 525.405 682.617 L 1182.067 682.617 L 1009.563 854.106 L 1009.563 854.106 Z" transform="matrix(-1, 0, 0, -1, 1784.91217, 1300)"/>
    <path d="M 467.144 446.2"/>
  </g>
</svg>