<svg width="100" height="100" xmlns="http://www.w3.org/2000/svg">

 <g>
  <title>background</title>
  <rect fill="none" id="canvas_background" height="402" width="582" y="-1" x="-1"/>
 </g>
 <g>
  <title>Layer 1</title>
  <g id="svg_1">
   <path id="svg_2" d="m9.1,36.6l36,20.3c1.5,1 3.2,1.5 4.9,1.5s3.4,-0.5 4.9,-1.5l36,-20.3c1.9,-1.1 3.1,-3 3.1,-5.2c0,-2.2 -1.2,-4.1 -3.1,-5.2l-36,-19.9c-2.9,-2 -6.8,-2 -9.8,0l-36,19.9c-2,1.1 -3.1,3 -3.1,5.2c0,2.2 1.1,4.1 3.1,5.2zm2,-6.8l36,-19.9c0.1,0 0.1,-0.1 0.2,-0.1c0,0 0,0 0,0c0,0 0,0 0,0c1.6,-1.1 3.8,-1.1 5.4,0c0,0 0,0 0,0c0,0 0,0 0,0c0,0 0,0 0,0c0.1,0 0.1,0.1 0.2,0.1l36,19.9c0.7,0.4 1.1,1 1.1,1.7c0,0.7 -0.4,1.3 -1.1,1.7l-36,20.3c-0.1,0 -0.1,0.1 -0.2,0.1c-1.6,1.1 -3.8,1.1 -5.4,0c-0.1,0 -0.1,-0.1 -0.2,-0.1l-36,-20.4c-0.7,-0.4 -1.1,-1 -1.1,-1.7c0,-0.6 0.4,-1.3 1.1,-1.6z"/>
   <path id="svg_3" d="m90.9,44.8c-1,-0.5 -2.2,-0.2 -2.7,0.8c-0.5,1 -0.2,2.2 0.8,2.7c0.7,0.4 1.1,1 1.1,1.7c0,0.7 -0.4,1.3 -1.1,1.7l-36.1,20.4c-0.1,0 -0.1,0.1 -0.2,0.1c-1.6,1.1 -3.8,1.1 -5.4,0c-0.1,0 -0.1,-0.1 -0.2,-0.1l-36,-20.4c-0.7,-0.4 -1.1,-1 -1.1,-1.7c0,-0.7 0.4,-1.3 1.1,-1.7c1,-0.5 1.3,-1.8 0.8,-2.7c-0.5,-1 -1.8,-1.3 -2.7,-0.8c-2,1.1 -3.1,3 -3.1,5.2c0,2.2 1.1,4.1 3.1,5.2l36,20.3c1.5,1 3.2,1.5 4.9,1.5c1.7,0 3.4,-0.5 4.9,-1.5l36,-20.3c1.9,-1.1 3.1,-3 3.1,-5.2c-0.1,-2.1 -1.3,-4.1 -3.2,-5.2z"/>
   <path id="svg_4" d="m90.9,62.8c-1,-0.5 -2.2,-0.2 -2.7,0.8c-0.5,1 -0.2,2.2 0.8,2.7c0.7,0.4 1.1,1 1.1,1.7c0,0.7 -0.4,1.3 -1.1,1.7l-36.1,20.4c-0.1,0 -0.1,0.1 -0.2,0.1c-1.6,1.1 -3.8,1.1 -5.4,0c-0.1,0 -0.1,-0.1 -0.2,-0.1l-36,-20.4c-0.7,-0.4 -1.1,-1 -1.1,-1.7c0,-0.7 0.4,-1.3 1.1,-1.7c1,-0.5 1.3,-1.8 0.8,-2.7s-1.8,-1.3 -2.7,-0.8c-2,1.1 -3.1,3 -3.1,5.2c0,2.2 1.1,4.1 3.1,5.2l36,20.3c1.5,1 3.2,1.5 4.9,1.5c1.7,0 3.4,-0.5 4.9,-1.5l36,-20.3c1.9,-1.1 3.1,-3 3.1,-5.2c-0.1,-2.1 -1.3,-4.1 -3.2,-5.2z"/>
  </g>
  <line stroke-linecap="undefined" stroke-linejoin="undefined" id="svg_5" y2="89.886445" x2="87.802193" y1="12.74359" x1="12.857143" stroke-width="3" stroke="#bf0000" fill="none"/>
  <line stroke-linecap="undefined" stroke-linejoin="undefined" id="svg_6" y2="90.326003" x2="12.417583" y1="12.523809" x1="87.802193" stroke-width="3" stroke="#bf0000" fill="none"/>
 </g>
</svg>
