<?xml version="1.0" encoding="UTF-8" standalone="no"?>
<svg
   id="Layer_1"
   enable-background="new 0 0 300 300"
   viewBox="0 0 300 300"
   version="1.1"
   sodipodi:docname="board.svg"
   inkscape:version="1.1 (c68e22c387, 2021-05-23)"
   xmlns:inkscape="http://www.inkscape.org/namespaces/inkscape"
   xmlns:sodipodi="http://sodipodi.sourceforge.net/DTD/sodipodi-0.dtd"
   xmlns="http://www.w3.org/2000/svg"
   xmlns:svg="http://www.w3.org/2000/svg">
  <defs
     id="defs45" />
  <sodipodi:namedview
     id="namedview43"
     pagecolor="#ffffff"
     bordercolor="#666666"
     borderopacity="1.0"
     inkscape:pageshadow="2"
     inkscape:pageopacity="0.0"
     inkscape:pagecheckerboard="0"
     showgrid="false"
     inkscape:zoom="2.91"
     inkscape:cx="150"
     inkscape:cy="149.82818"
     inkscape:window-width="2560"
     inkscape:window-height="1369"
     inkscape:window-x="0"
     inkscape:window-y="0"
     inkscape:window-maximized="1"
     inkscape:current-layer="Layer_1" />
  <g
     id="g10">
    <g
       id="g8">
      <g
         id="g6">
        <path
           d="m100 100c-3.456 0-6.25 2.794-6.25 6.25v100c0 3.456 2.794 6.25 6.25 6.25h100c3.456 0 6.25-2.794 6.25-6.25v-100c0-3.456-2.794-6.25-6.25-6.25zm93.75 100h-87.5v-87.5h87.5z"
           id="path2" />
        <path
           d="m293.75 162.5c3.456 0 6.25-2.794 6.25-6.25s-2.794-6.25-6.25-6.25h-50v-37.5h50c3.456 0 6.25-2.794 6.25-6.25s-2.794-6.25-6.25-6.25h-50v-31.25c0-3.456-2.794-6.25-6.25-6.25h-31.25v-56.25c0-3.456-2.794-6.25-6.25-6.25s-6.25 2.794-6.25 6.25v56.25h-37.5v-56.25c0-3.456-2.794-6.25-6.25-6.25s-6.25 2.794-6.25 6.25v56.25h-37.5v-56.25c0-3.456-2.794-6.25-6.25-6.25s-6.25 2.794-6.25 6.25v56.25h-31.25c-3.456 0-6.25 2.794-6.25 6.25v31.25h-50c-3.456 0-6.25 2.794-6.25 6.25s2.794 6.25 6.25 6.25h50v37.5h-50c-3.456 0-6.25 2.794-6.25 6.25s2.794 6.25 6.25 6.25h50v37.5h-50c-3.456 0-6.25 2.794-6.25 6.25s2.794 6.25 6.25 6.25h50v31.25c0 3.456 2.794 6.25 6.25 6.25h31.25v43.75c0 3.456 2.794 6.25 6.25 6.25s6.25-2.794 6.25-6.25v-43.75h37.5v43.75c0 3.456 2.794 6.25 6.25 6.25s6.25-2.794 6.25-6.25v-43.75h37.5v43.75c0 3.456 2.794 6.25 6.25 6.25s6.25-2.794 6.25-6.25v-43.75h31.25c3.456 0 6.25-2.794 6.25-6.25v-31.25h50c3.456 0 6.25-2.794 6.25-6.25s-2.794-6.25-6.25-6.25h-50v-37.5zm-62.5 75h-162.5v-162.5h162.5z"
           id="path4" />
      </g>
    </g>
  </g>
  <g
     id="g12" />
  <g
     id="g14" />
  <g
     id="g16" />
  <g
     id="g18" />
  <g
     id="g20" />
  <g
     id="g22" />
  <g
     id="g24" />
  <g
     id="g26" />
  <g
     id="g28" />
  <g
     id="g30" />
  <g
     id="g32" />
  <g
     id="g34" />
  <g
     id="g36" />
  <g
     id="g38" />
  <g
     id="g40" />
</svg>
