<?xml version="1.0" encoding="UTF-8" standalone="no"?>
<!-- Created with Inkscape (http://www.inkscape.org/) -->

<svg
   version="1.0"
   width="228.24799"
   height="228.092"
   viewBox="0 0 228.248 228.092"
   id="Layer_1"
   xml:space="preserve"
   sodipodi:docname="bus.svg"
   inkscape:version="1.1 (c68e22c387, 2021-05-23)"
   xmlns:inkscape="http://www.inkscape.org/namespaces/inkscape"
   xmlns:sodipodi="http://sodipodi.sourceforge.net/DTD/sodipodi-0.dtd"
   xmlns="http://www.w3.org/2000/svg"
   xmlns:svg="http://www.w3.org/2000/svg"><sodipodi:namedview
   id="namedview5"
   pagecolor="#ffffff"
   bordercolor="#666666"
   borderopacity="1.0"
   inkscape:pageshadow="2"
   inkscape:pageopacity="0.0"
   inkscape:pagecheckerboard="0"
   showgrid="false"
   inkscape:zoom="2.6344141"
   inkscape:cx="210.29344"
   inkscape:cy="113.87731"
   inkscape:window-width="2560"
   inkscape:window-height="1369"
   inkscape:window-x="0"
   inkscape:window-y="0"
   inkscape:window-maximized="1"
   inkscape:current-layer="Layer_1"
   width="288.24799px" /><defs
   id="defs1337" />
<path
   d="M 227.37112,114.054 198.89804,84.556108 198.84488,105.12875 75.670612,105.771 100.37509,53.159 c 2.10243,-3.397 5.17657,-9.40509 8.00628,-9.53709 11.44737,0 18.24534,-0.006 20.74764,-0.016 1.69615,9.741 7.73828,11.374297 13.15463,11.374297 6.85206,0 13.60113,-4.511418 13.60113,-18.328418 0,-13.823 -6.42077,-20.64318 -13.27332,-20.64318 -5.41635,0 -11.78629,1.344301 -13.48244,11.077301 l -20.50455,-0.007 c -5.55724,0 -11.703675,9.77109 -15.40999,16.97609 0.101206,-0.214 0.206378,-0.442 -0.0056,0.004 -0.07843,0.178 -26.210607,55.814 -26.210607,55.814 -2.097981,3.392 -4.847332,5.76 -7.675065,5.896 l -7.370477,-0.33951 C 50.050083,86.31649 37.688298,81.534318 27.644384,81.534318 16.193053,81.534318 3.9165771,90.967 3.9165771,114.043 c 0,23.083 12.8998189,32.46736 24.3511499,32.46736 10.045898,0 20.983248,-4.74842 22.88577,-23.87742 L 59.07327,122.297 c 0.0362,-0.002 0.07243,0.004 0.109139,0 h 31.189906 c 2.822277,0.145 5.568155,2.516 7.664164,5.912 0,0 26.060771,60.23987 26.141631,60.41987 0.20935,0.447 0.10518,0.214 0.002,0.004 3.70631,7.204 9.53195,13.346 15.09017,13.346 l 19.76039,-0.009 0.0656,12.16913 28.66184,0.0128 v -41.79761 l -28.66184,-0.0128 -0.0656,13.11548 c 0,0 -5.20449,-0.019 -20.00248,-0.019 -2.83022,-0.131 -5.58403,-2.511 -7.68549,-5.908 L 106.6983,122.3 l 91.96454,-0.58162 0.53191,21.43535 z"
   id="path1334"
   style="stroke-width:0.704339"
   sodipodi:nodetypes="cccccccssscccccccssscscccccccccccccccccc" />
</svg>
