<?xml version="1.0" encoding="UTF-8" standalone="no"?>
<svg
   enable-background="new 0 0 24 24"
   height="512"
   viewBox="0 0 24 24"
   width="512"
   version="1.1"
   id="svg10"
   sodipodi:docname="function.svg"
   inkscape:version="1.1 (c68e22c387, 2021-05-23)"
   xmlns:inkscape="http://www.inkscape.org/namespaces/inkscape"
   xmlns:sodipodi="http://sodipodi.sourceforge.net/DTD/sodipodi-0.dtd"
   xmlns="http://www.w3.org/2000/svg"
   xmlns:svg="http://www.w3.org/2000/svg">
  <defs
     id="defs14" />
  <sodipodi:namedview
     id="namedview12"
     pagecolor="#ffffff"
     bordercolor="#666666"
     borderopacity="1.0"
     inkscape:pageshadow="2"
     inkscape:pageopacity="0.0"
     inkscape:pagecheckerboard="0"
     showgrid="false"
     inkscape:zoom="1.7050781"
     inkscape:cx="256"
     inkscape:cy="255.70676"
     inkscape:window-width="2560"
     inkscape:window-height="1369"
     inkscape:window-x="0"
     inkscape:window-y="0"
     inkscape:window-maximized="1"
     inkscape:current-layer="svg10" />
  <path
     d="m21.5 24h-19c-1.379 0-2.5-1.122-2.5-2.5v-19c0-1.378 1.121-2.5 2.5-2.5h19c1.379 0 2.5 1.122 2.5 2.5v19c0 1.378-1.121 2.5-2.5 2.5zm-19-23c-.827 0-1.5.673-1.5 1.5v19c0 .827.673 1.5 1.5 1.5h19c.827 0 1.5-.673 1.5-1.5v-19c0-.827-.673-1.5-1.5-1.5z"
     id="path2" />
  <path
     d="m 3.4915703,18.58832 c -0.4226214,0 -0.7656186,-0.354779 -0.7656186,-0.791916 V 9.8772408 c 0,-2.1825214 1.7165169,-3.9595816 3.8280929,-3.9595816 h 3.0624742 c 0.4226212,0 0.7656182,0.3547785 0.7656182,0.7919163 0,0.4371377 -0.342997,0.7919163 -0.7656182,0.7919163 H 6.5540446 c -1.2663332,0 -2.2968557,1.0659194 -2.2968557,2.375749 v 7.9191632 c 0,0.437137 -0.3429972,0.791916 -0.7656186,0.791916 z"
     id="path4"
     style="stroke-width:1.55731" />
  <path
     d="m 20.335178,18.58832 c -0.269497,0 -0.526745,-0.147296 -0.666087,-0.399126 L 14.975849,9.6919323 v 8.1044717 c 0,0.437137 -0.342997,0.791916 -0.765619,0.791916 -0.422621,0 -0.765619,-0.354779 -0.765619,-0.791916 V 6.7095755 c 0,-0.35953 0.232748,-0.6731289 0.569621,-0.7649912 0.329216,-0.088694 0.687526,0.060186 0.860555,0.3722007 l 4.694774,8.497262 V 6.7095755 c 0,-0.4371378 0.342996,-0.7919163 0.765617,-0.7919163 0.422622,0 0.765619,0.3547785 0.765619,0.7919163 V 17.796404 c 0,0.35953 -0.232747,0.673129 -0.569619,0.764991 -0.06431,0.01901 -0.130156,0.02692 -0.196,0.02692 z"
     id="path6"
     style="stroke-width:1.55731" />
  <path
     d="M 9.6165188,13.044906 H 3.4915703 c -0.4226214,0 -0.7656186,-0.354779 -0.7656186,-0.791916 0,-0.437138 0.3429972,-0.791917 0.7656186,-0.791917 h 6.1249485 c 0.4226212,0 0.7656182,0.354779 0.7656182,0.791917 0,0.437137 -0.342997,0.791916 -0.7656182,0.791916 z"
     id="path8"
     style="stroke-width:1.55731" />
</svg>
