<?xml version="1.0" encoding="UTF-8" standalone="no"?>
<!-- Generator: Adobe Illustrator 17.1.0, SVG Export Plug-In . SVG Version: 6.00 Build 0)  -->

<svg
   version="1.1"
   id="Capa_1"
   x="0px"
   y="0px"
   viewBox="0 0 262.643 262.643"
   style="enable-background:new 0 0 262.643 262.643;"
   xml:space="preserve"
   sodipodi:docname="port.svg"
   inkscape:version="1.1 (c68e22c387, 2021-05-23)"
   xmlns:inkscape="http://www.inkscape.org/namespaces/inkscape"
   xmlns:sodipodi="http://sodipodi.sourceforge.net/DTD/sodipodi-0.dtd"
   xmlns="http://www.w3.org/2000/svg"
   xmlns:svg="http://www.w3.org/2000/svg"><defs
   id="defs51" /><sodipodi:namedview
   id="namedview49"
   pagecolor="#ffffff"
   bordercolor="#666666"
   borderopacity="1.0"
   inkscape:pageshadow="2"
   inkscape:pageopacity="0.0"
   inkscape:pagecheckerboard="0"
   showgrid="false"
   inkscape:zoom="3.3239035"
   inkscape:cx="131.3215"
   inkscape:cy="131.17108"
   inkscape:window-width="2560"
   inkscape:window-height="1369"
   inkscape:window-x="0"
   inkscape:window-y="0"
   inkscape:window-maximized="1"
   inkscape:current-layer="Capa_1" />
<g
   id="g16">
	<path
   style="fill:#000002;"
   d="M262.642,47.501c0-9.649-7.851-17.5-17.5-17.5H17.5c-9.649,0-17.5,7.851-17.5,17.5v167.641   c0,9.649,7.851,17.5,17.5,17.5h227.643c9.649,0,17.5-7.851,17.5-17.5L262.642,47.501z M245.143,217.642H17.5   c-1.355,0-2.5-1.145-2.5-2.5V47.501c0-1.355,1.145-2.5,2.5-2.5h227.642c1.355,0,2.5,1.145,2.5,2.5l0.001,167.641   C247.643,216.497,246.499,217.642,245.143,217.642z"
   id="path2" />
	<path
   style="fill:#000002;"
   d="M208.33,74.271H54.313c-6.341,0-11.5,5.159-11.5,11.5v46.885c0,6.341,5.159,11.5,11.5,11.5h12.5   v12.274c0,6.341,5.159,11.5,11.5,11.5h14.5v8.942c0,6.342,5.159,11.5,11.5,11.5h54.016c6.341,0,11.5-5.158,11.5-11.5v-8.942h14.5   c6.341,0,11.5-5.159,11.5-11.5v-12.274h12.5c6.341,0,11.5-5.159,11.5-11.5V85.771C219.83,79.43,214.67,74.271,208.33,74.271z    M206.83,131.156h-12.5c-6.341,0-11.5,5.159-11.5,11.5v12.274h-14.5c-6.341,0-11.5,5.159-11.5,11.5v8.942h-51.016v-8.942   c0-6.341-5.159-11.5-11.5-11.5h-14.5v-12.274c0-6.341-5.159-11.5-11.5-11.5h-12.5V87.271H206.83V131.156z"
   id="path4" />
	<path
   style="fill:#000002;"
   d="M79.821,123.492c3.59,0,6.5-2.91,6.5-6.5v-20.5c0-3.59-2.91-6.5-6.5-6.5c-3.59,0-6.5,2.91-6.5,6.5   v20.5C73.321,120.581,76.231,123.492,79.821,123.492z"
   id="path6" />
	<path
   style="fill:#000002;"
   d="M105.571,123.492c3.59,0,6.501-2.91,6.501-6.5v-20.5c0-3.59-2.911-6.5-6.501-6.5   c-3.59,0-6.5,2.91-6.5,6.5v20.5C99.071,120.581,101.981,123.492,105.571,123.492z"
   id="path8" />
	<path
   style="fill:#000002;"
   d="M131.321,123.492c3.59,0,6.5-2.91,6.5-6.5v-20.5c0-3.59-2.91-6.5-6.5-6.5c-3.59,0-6.5,2.91-6.5,6.5   v20.5C124.821,120.581,127.731,123.492,131.321,123.492z"
   id="path10" />
	<path
   style="fill:#000002;"
   d="M157.071,123.492c3.59,0,6.5-2.91,6.5-6.5v-20.5c0-3.59-2.91-6.5-6.5-6.5c-3.59,0-6.5,2.91-6.5,6.5   v20.5C150.571,120.581,153.481,123.492,157.071,123.492z"
   id="path12" />
	<path
   style="fill:#000002;"
   d="M182.821,123.492c3.59,0,6.5-2.91,6.5-6.5v-20.5c0-3.59-2.91-6.5-6.5-6.5c-3.59,0-6.5,2.91-6.5,6.5   v20.5C176.321,120.581,179.231,123.492,182.821,123.492z"
   id="path14" />
</g>
<g
   id="g18">
</g>
<g
   id="g20">
</g>
<g
   id="g22">
</g>
<g
   id="g24">
</g>
<g
   id="g26">
</g>
<g
   id="g28">
</g>
<g
   id="g30">
</g>
<g
   id="g32">
</g>
<g
   id="g34">
</g>
<g
   id="g36">
</g>
<g
   id="g38">
</g>
<g
   id="g40">
</g>
<g
   id="g42">
</g>
<g
   id="g44">
</g>
<g
   id="g46">
</g>
</svg>
