<?xml version="1.0" encoding="UTF-8" standalone="no"?>
<svg
   xmlns:dc="http://purl.org/dc/elements/1.1/"
   xmlns:cc="http://creativecommons.org/ns#"
   xmlns:rdf="http://www.w3.org/1999/02/22-rdf-syntax-ns#"
   xmlns:svg="http://www.w3.org/2000/svg"
   xmlns="http://www.w3.org/2000/svg"
   xmlns:sodipodi="http://sodipodi.sourceforge.net/DTD/sodipodi-0.dtd"
   xmlns:inkscape="http://www.inkscape.org/namespaces/inkscape"
   fill="none"
   height="24"
   stroke="currentColor"
   stroke-linecap="round"
   stroke-linejoin="round"
   stroke-width="2"
   viewBox="0 0 24 24"
   width="24"
   version="1.1"
   id="svg3766"
   sodipodi:docname="open.svg"
   inkscape:version="0.92.5 (2060ec1f9f, 2020-04-08)">
  <metadata
     id="metadata3772">
    <rdf:RDF>
      <cc:Work
         rdf:about="">
        <dc:format>image/svg+xml</dc:format>
        <dc:type
           rdf:resource="http://purl.org/dc/dcmitype/StillImage" />
        <dc:title></dc:title>
      </cc:Work>
    </rdf:RDF>
  </metadata>
  <defs
     id="defs3770" />
  <sodipodi:namedview
     pagecolor="#ffffff"
     bordercolor="#666666"
     borderopacity="1"
     objecttolerance="10"
     gridtolerance="10"
     guidetolerance="10"
     inkscape:pageopacity="0"
     inkscape:pageshadow="2"
     inkscape:window-width="2482"
     inkscape:window-height="1411"
     id="namedview3768"
     showgrid="false"
     inkscape:zoom="39.333333"
     inkscape:cx="12.541602"
     inkscape:cy="12.241088"
     inkscape:window-x="-9"
     inkscape:window-y="-9"
     inkscape:window-maximized="1"
     inkscape:current-layer="svg3766"
     inkscape:snap-grids="true" />
  <path
     d="M -0.27366166,-37.674253 H -13.760237 c -1.862833,0 -3.371643,2.312793 -3.371643,5.168254 v 20.673015 c 0,2.8554608 1.50881,5.1682545 3.371643,5.1682545 h 13.48657534 c 1.86283316,0 3.37164376,-2.3127937 3.37164376,-5.1682545 v -20.673015 c 0,-2.855461 -1.5088106,-5.168254 -3.37164376,-5.168254 z m 1.12388125,25.841269 c 0,0.951821 -0.50293686,1.722752 -1.12388125,1.722752 H -13.760237 c -0.620944,0 -1.123881,-0.770931 -1.123881,-1.722752 v -20.673015 c 0,-0.951821 0.502937,-1.722752 1.123881,-1.722752 h 13.48657534 c 0.62094439,0 1.12388125,0.770931 1.12388125,1.722752 z"
     id="path4590"
     inkscape:connector-curvature="0"
     style="stroke-width:0.34786561" />
  <rect
     style="stroke:#000000;stroke-width:1.99937046;stroke-miterlimit:4;stroke-dasharray:none"
     id="rect4632-1"
     width="15.957919"
     height="17.253559"
     x="4.0544629"
     y="4.788815"
     ry="2.0645385"
     rx="2.1355929"
     transform="skewX(-0.01101585)" />
  <rect
     style="fill:#333333;stroke:#000000;stroke-width:1.9993701;stroke-linejoin:round;stroke-miterlimit:4;stroke-dasharray:none"
     id="rect838"
     width="2.6440678"
     height="0.63559312"
     x="7.0932202"
     y="3.9661014"
     rx="0"
     ry="1.7288135" />
  <rect
     style="stroke:#000000;stroke-width:1.99999964;stroke-miterlimit:4;stroke-dasharray:none"
     id="rect4632"
     width="15.957919"
     height="12.008399"
     x="4.0502248"
     y="10.033975"
     ry="2.1355934"
     rx="2.1355932" />
</svg>
